<?xml version="1.0" encoding="UTF-8"?><svg id="About" xmlns="http://www.w3.org/2000/svg" viewBox="0 0 432 414"><defs><style>.cls-1{fill:#fff;}.cls-1,.cls-2{stroke:#3cf;stroke-miterlimit:10;}.cls-2{fill:none;stroke-width:.75px;}.cls-3{fill:#3cf;}</style></defs><g><path class="cls-3" d="M167.39,52.07c4.19-11.64,15.76-16.51,24.55-10.17,4.07,2.94,5.2,7.38,6.3,11.87,.99,.74,1.62,1.71,1.92,2.9,2.51,10.17,7.97,19.14,10.71,26.31-2.25-7.85-5.48-18.22-5.73-29.21-.41-3.83-.97-7.65-1.19-11.5-.52-9.33,5.89-16.34,15.52-17.18,10.08-.87,15.51,3.57,16.96,13.79,.42,2.93,.71,5.9,1.91,8.66,2.16,2.96,2.52,6.57,3.52,9.93,1.98,6.64,4.01,13.26,6.03,19.88,.88,2.42,1.37,4.98,2.56,7.28,.4,.48,.67-.57,.3-.1-.13,.17-.25,.1-.4-.18-1.28-2.5-1.74-5.28-2.66-7.9-2.67-7.91-4.35-16.06-5.99-24.21-.32-1.57-.87-3.2,.09-4.77-1.37-7.46-2.47-14.99-4.19-22.37-2.01-8.63,2.46-17.24,10.83-19.85,7.82-2.44,15.66,1.72,18.63,10.33,2.62,7.59,4.12,15.54,7.28,22.97,1.16,.77,1.82,1.9,2.3,3.17,3.37,8.99,7.77,17.57,10.69,26.73,.81,2.11,1.64,4.21,2.5,6.3-1.06-2.36-1.9-4.81-2.73-7.28-3.41-8.39-5.1-17.25-7.4-25.94-.43-1.64,.14-3.21-.05-4.8-.92-6.93-3.24-13.63-3.47-20.68-.26-7.56,3.87-13.3,11.06-15.31,8.09-2.26,14.06-.08,17.9,6.9,3.51,6.37,6.75,12.9,10.11,19.36,4.79,4.83,6.32,11.42,8.97,17.33,9.54,21.25,17.28,43.18,23.56,65.62,1.72,6.17,1.79,6.04,8.34,5.3,4.84-.55,9.57-2.36,14.56-1.32-3.99,17.86-6.74,35.86-6.04,54.24,.21,5.49,.64,10.96,.93,16.45,.08,1.54,.73,3.41-1.74,3.81-1.17,1.88-3.22,2-5.06,2.46-12.13,2.98-24.1,6.5-35.91,10.58-15.14,4.98-29.95,10.79-44.34,17.66-3.36,1.6-6.76,3.12-10.17,4.6-1.67,.73-3.32,1.47-5.01,.07-4.45-5.67-8.64-11.54-13.19-17.14-10.04-12.8-22.45-23.49-32.47-36.31-21.64-31.47-38.17-65.29-47.42-102.49-1.38-5.53-4.16-10.12-2.88-15.79Z"/><path class="cls-3" d="M337.91,352.95c4.82-2.5,11.13-1.07,16.26-2.37,24.38-6.2,47.75-14.67,68.73-28.9,.76-.51,1.51-.96,2.47-.65,1.56,1.79,.88,3.4-.16,5.22-16.02,28.07-37.07,51.73-62.35,71.76-2.72,2.15-3.24,.87-4.2-1.35-6.17-14.18-13.78-29.9-20.75-43.7Z"/><path class="cls-3" d="M336.01,241.97c-.7-.07-1.41-.14-2.98-.3,13.17-6.43,25.5-12.71,37.42-19.74,2.93-1.73,4.75,8.44,1.83,9.68-11.25,4.76-24.76,6.37-36.27,10.36Z"/><path class="cls-3" d="M409.69,295.68c.07,1-.34,1.65-1.24,2.15-10.41,5.68-21.59,9.05-33.28,11.08,10.13-5.63,19.02-13.57,28.95-19.46,.44-.26,1.83,.49,2.64,1.7,.98,1.51,1.95,3.02,2.93,4.53Z"/><path class="cls-3" d="M389.89,261.66c-.44,.57-.77,1.33-1.35,1.67-11.26,6.61-23.27,11.58-35.65,15.79,8.15-4.6,16.31-9.18,24.44-13.81,2.97-1.69,5.93-3.4,8.74-5.34,1.81-1.25,2.59-.26,3.48,.99,.04,.27,.16,.5,.34,.7Z"/></g><g><path class="cls-3" d="M84.24,296.63c-5.7-.1-11.14,2.54-16.71,3.36-5.24,.77-5.47-.28-4.35-5.32,4.82-21.83,6.26-43.86,3.96-66.12,.72-2.88,3.42-2.49,5.36-2.95,20.91-4.98,41.34-11.46,61.29-19.44,10.23-4.09,20.4-8.35,30.22-13.41,5.18-2.67,6.12-2.42,9.55,2.44,3.53,5,7.19,9.88,11.27,14.43,10.37,11.96,21.92,22.88,31.41,35.63,11.7,15.6,20.39,32.93,28.63,50.47,8.06,17.16,14.58,34.92,18.43,53.57,.75,3.64,1.17,7.24,.9,10.94,.29,7.25-4.2,13.24-11.22,14.97-7.27,1.79-12.99-1.05-16.23-8.18-.85-1.87-1.35-3.91-2.01-5.87-1.14-1.02-1.9-2.29-2.29-3.76-2.47-9.27-7.43-17.52-10.73-26.45-.2-.53-.45-1.1-.88-1.04,1.44,1.38,1.83,3.51,2.27,5.4,1.72,7.4,3.06,14.88,4.55,22.32,.3,1.52-.36,2.93-.17,4.41,.35,5.25,2.91,10.27,1.1,15.77-2.36,7.17-9.12,12.32-16.35,11.99-7.14-.33-13.67-6.12-15.31-13.32-.75-3.29-.88-6.77-2.58-9.82-3.06-5.36-3.66-11.53-5.67-17.25-1.51-4.3-2.65-8.75-3.83-13.17-.18-.57-.69,.11-.16-.17,.08-.04,.17,.08,.24,.37,2.8,11.11,7.07,21.92,6.77,33.66,1.25,6.56,2.41,13.14,3.76,19.69,1.59,7.72-3.5,16.66-10.78,18.66-8.25,2.27-16.44-2.24-19-10.55-2.31-7.5-3.57-15.33-7.02-22.48-4.08-6.43-5.97-13.84-9.17-20.67-1.79-3.82-3.56-7.7-4.14-10.84,3.11,10.86,7.35,22.6,7.79,35.15,.99,5.69,1.94,11.4,2.98,17.08,1.24,6.8-2.66,14.16-8.92,16.68-7.08,2.85-15.15,.59-18.78-5.79-3.67-6.45-6.82-13.19-10.2-19.81-1.29-.99-2.51-1.96-3.27-3.53-11.85-24.73-21.58-50.27-29.11-76.64-.98-3.42-1.27-6.89-1.58-10.38Z"/><path class="cls-3" d="M96.13,59.12c-5.42,3.48-11.86,3.45-17.8,5.1-23.19,6.42-45.58,14.64-65.97,27.68-1.25,.8-2.54,1.62-4.16,1.29-2-2.4-1.6-4.61-.06-7.23C24.65,57.86,45.92,33.99,71.61,13.99c2.43-1.89,3.5-2.27,4.94,1.04,6.38,14.76,13.03,29.4,19.59,44.09Z"/><path class="cls-3" d="M24.03,118.39c10.79-7.66,23.28-10.74,36.28-12.78-11.08,6.28-22.17,12.55-33.25,18.82-1.01-2.02-2.02-4.03-3.03-6.05Z"/><path class="cls-3" d="M59.05,188.22c3.56-3.78,8.67-4.28,13.13-6.06,8.35-3.34,16.92-6.04,25.95-7.53-3.58,1.89-7.17,3.76-10.74,5.67-7.59,4.08-15.16,8.2-22.76,12.26-1.43,.76-2.94,2.4-4.49,.11-.36-1.48-.73-2.97-1.09-4.45Z"/><path class="cls-3" d="M44.6,153.33c5.94-4.92,13.21-7.36,20.02-10.63,3.12-1.5,6.24-3.39,10.14-3.09-9.67,5.44-19.33,10.88-29,16.31-.39-.87-.77-1.73-1.16-2.6Z"/></g><g><path class="cls-1" d="M184.54,210.62c-4.92-4.39-8.52-9.83-12.14-15.25-2.01-3.02-3.83-3.75-7.5-1.92-30.55,15.27-62.59,26.44-95.84,34.17-.68,.16-1.29,.61-1.93,.92-2.22,0-4.47-.2-6.67,.04-8.44,.9-13.89-5.79-15.5-10.82-2.1-6.59,.47-13.42,6.65-17.71,1.81-1.26,3.77-2.34,5.76-3.32,1.76-.87,11.92-8.14,16.32-10.48,7.03-3.75,14.09-7.43,20.11-10.31-10.94,3.33-43.29,15.53-47.45,17.36-4.82,2.11-9.41,3-14.55,.57-6.34-3-9.05-8.19-9.25-14.59-.2-6.21,2.93-11.01,8.4-14.23,4.99-2.94,17.02-11.44,18.39-12.28,7.8-4.78,24.01-13.19,23.71-13.05-9.54,4.42-18.79,9.46-28.46,13.6-4.26,1.06-7.78,4.03-12.68,3.68-7.22-.52-12.85-4.21-15.04-11.06-2.06-6.43,.53-14.49,5.9-18.38,1.43-1.04,9.64-7.36,12.59-9.03,7.83-4.45,15.35-9.5,22.04-12.12-9.15,2.27-32.13,12.07-33.37,11.98-5.56,1.72-10.76,2.29-15.8-1.99-5.84-4.96-6.25-15.75-1.45-20.52,.76-.76,31.91-19.93,48.51-25.74,13.34-4.67,50.86-12.44,55.9-12.99,12.17-1.33,24.24-3.33,36.61-1.75,5.85,.74,11.88-.05,17.8,.28,3.82,.21,7.59,19.79,11.44,31.46,9.65,29.27,23.59,56.44,41.08,81.79,.25,.36,.39,.79,.58,1.19,.56,1.55-.79,2.08-1.59,2.84-11.38,10.76-21.54,22.56-30.42,35.47-.59,.85-1.14,1.76-2.15,2.19Z"/><path class="cls-1" d="M370.68,113.94c-6.58,1.11-13.17,2.19-19.75,3.35-3.12,.55-2.81-1.95-3.27-3.61-6.44-23.38-14.52-46.17-24.23-68.39-2.67-6.12-5.44-12.19-8.17-18.28,12.94-4.4,25.93-8.64,38.77-13.31,3.16-1.15,4.92-.67,7.49,1.35,9.74,7.64,18.86,15.93,27.33,24.93,17,18.06,31.46,37.92,42.56,60.18,1.69,3.39,.31,4.17-2.42,4.59-17.83,2.77-35.67,5.48-53.51,8.23-1.61,.25-3.2,.63-4.8,.96Z"/><path class="cls-1" d="M205.14,53.77c2.41,10.81,4.82,21.61,7.23,32.42-6.28-10.16-11.39-20.78-14.13-32.42,2.3,0,4.6,0,6.9,0Z"/><path class="cls-1" d="M279.65,36.74c2.73,10.43,5.45,20.86,8.18,31.3,.21,.88-.13,1.15-.96,.87-4.2-10.1-9-19.96-12.52-30.34,2.02,.12,3.91-.12,5.31-1.82Z"/><path class="cls-1" d="M241.79,47.48c2.2,9.84,4.4,19.67,6.6,29.51,.23,.91-.14,1.16-.98,.91-3.44-9.99-7.39-19.84-9.07-30.36,1.15-.02,2.3-.04,3.45-.06Z"/></g><g><path class="cls-1" d="M255.49,323.57c-9.38-26.84-21.75-52.2-37.57-75.84-.91-1.35-1.92-2.64-2.88-3.95,12.65-10.8,20.54-20.74,30.02-34.34,.76-1.09,2.53-3.95,4.03-4.1,4.61,5.2,8.08,11.1,13.49,16.54,1.76,1.73,3.82,.66,5.48-.14,10.33-4.95,20.69-9.82,31.32-14.1,7.64-3.07,15.54-5.43,23.03-8.88,13.49-5.11,45.76-12.24,47.83-12.53,8.69-1.24,15.86,2.23,18.58,9.42,3.13,8.28,.27,15.66-7.54,20.58-2.76,1.74-11.99,5.61-14.04,6.85-10.27,6.22-20.91,11.75-31.98,16.41-.33,.14,.72,.21,.75,.69,1.84,2,3.69,.32,5.33-.21,16.25-5.32,32.47-10.68,47.73-18.61,6.88-3.57,14.89-2.05,19.29,3,4.55,5.22,5.34,14.6,1.57,20-3.19,4.56-8.3,6.63-12.74,9.57-2.57,1.71-10.56,5.22-11.94,6.07-9.67,6-19.48,11.74-29.89,16.39,11.66-5.22,42-20.4,46.61-20.24,8,.28,13.81,4.24,15.92,11.66,1.8,6.32-1.53,14.22-7.57,18.01-1.44,.9-23.29,16.17-31.96,20.22,9.21-3.28,36.3-12.87,38.79-13.02,6.34-.36,10.4,2.92,12.7,8.52,2.19,5.34,1.74,10.44-2.19,14.96-.78,.89-1.53,1.81-2.29,2.71-6.55,5.5-14.08,9.49-21.67,13.23-18.53,9.14-38.17,15.14-58.29,19.63-2.17,.48-4.36,.96-6.61,.86-6.85,1.06-13.69,2.24-20.56,3.15-12.81,1.69-25.65,2.05-38.55,.81-4.42-.42-8.9-.18-13.35-.26-1.25-.02-6.89-21.73-10.86-33.08Z"/><path class="cls-1" d="M84.24,294.84c3.74,13.7,7.78,27.3,12.54,40.68,6.08,17.08,13.23,33.7,21.42,49.88-11.04,2.53-21.86,6.04-32.14,10.55-8.46,3.71-13.91,2.14-20.8-3.69-20.55-17.39-38.14-37.14-52.4-59.91-4.51-7.2-8.44-14.73-12.31-22.29-1.17-2.28-1.11-3.76,1.99-3.99,4.88-.37,9.74-1.11,14.62-1.36,21.51-1.09,42.96-2.66,64.1-7.1,1.79-.38,3.28-.44,2.97-2.77Z"/><path class="cls-2" d="M227.47,360.21c-2.31-11.06-4.61-22.13-6.92-33.19,6.24,10.15,11.21,20.8,14.16,32.32-2.43,.2-5-.85-7.25,.87Z"/><path class="cls-2" d="M153.12,377.23c-2.95-12.18-5.37-24.49-8.56-36.68,5.18,10.83,10.86,21.41,14.08,33.04-2.26,.57-5.4-.19-5.52,3.64Z"/><path class="cls-2" d="M191.68,368.27c-2.4-11.32-4.79-22.64-7.19-33.96,3.91,10,8.37,19.79,9.83,30.51-2.41-.02-2.62,1.65-2.65,3.45Z"/></g></svg>