<?xml version="1.0" encoding="UTF-8"?><svg id="Icon" xmlns="http://www.w3.org/2000/svg" viewBox="0 0 432 432"><defs><style>.cls-1{fill:#3cf;}</style></defs><g id="Cars"><path class="cls-1" d="M216,20c26.47,0,52.14,5.18,76.29,15.39,23.34,9.87,44.3,24.01,62.31,42.01,18.01,18.01,32.14,38.97,42.01,62.31,10.22,24.15,15.39,49.82,15.39,76.29s-5.18,52.13-15.39,76.29c-9.87,23.34-24.01,44.3-42.01,62.31-18.01,18.01-38.97,32.14-62.31,42.01-24.15,10.21-49.82,15.39-76.29,15.39s-52.14-5.18-76.29-15.39c-23.34-9.87-44.3-24.01-62.31-42.01-18.01-18.01-32.14-38.97-42.01-62.31-10.22-24.15-15.39-49.82-15.39-76.29s5.18-52.13,15.39-76.29c9.87-23.34,24.01-44.3,42.01-62.31,18.01-18.01,38.97-32.14,62.31-42.01,24.15-10.21,49.82-15.39,76.29-15.39m0-20C96.71,0,0,96.71,0,216s96.71,216,216,216,216-96.71,216-216S335.29,0,216,0h0Z"/><g><path class="cls-1" d="M370.55,286.98h-12.68c0,4,.04,7.58,0,11.15-.11,7.64-4.5,12.38-11.55,12.53-7.1,.15-12.38-5.08-12.57-12.55-.09-3.58-.02-7.16-.02-10.96h-82.31c0,3.87,.12,7.69-.03,11.49-.33,8.29-7.44,13.54-15.46,11.53-5.27-1.32-8.24-4.93-8.53-10.48-.11-2.09-.04-4.19-.04-6.28,0-1.96,0-3.92,0-6.3h-12.7c-.08-1.62-.19-2.85-.18-4.07,.12-25.48-.13-50.96,.55-76.42,.3-11.1,2.47-22.15,3.85-33.22,.91-7.26,2.23-14.49,2.83-21.77,.83-10.06,6.71-16.45,15.22-20,21.24-8.86,43.53-12.41,66.51-10.4,14.51,1.27,28.74,4.18,42.4,9.37,10.19,3.87,16.68,10.66,17.91,22.2,1.71,16.06,4.12,32.04,6.21,48.05,.22,1.73,.38,3.47,.39,5.21,.14,26.06,.24,52.11,.35,78.17,0,.69-.07,1.39-.15,2.75Zm-78.34-75.99v.03c18.71,0,37.43,.02,56.14,0,5.32,0,6.37-1,5.67-6.17-1.94-14.38-4.02-28.74-6.15-43.09-.6-4.06-2.25-5.31-6.33-5.31-32.66-.02-65.32-.03-97.99-.03-4.67,0-6.17,1.33-6.84,6.01-1.92,13.45-3.82,26.89-5.74,40.34-1.08,7.58-.51,8.24,7.17,8.24,18.02,0,36.03,0,54.05,0Zm.56-73.37c-10.1,0-20.21,.01-30.31,0-2.35,0-4.53,.04-4.59,3.27-.06,3.12,1.96,3.59,4.38,3.59,20.32,0,40.64,.01,60.96-.01,2.23,0,4.19-.39,4.23-3.37,.04-3.18-1.93-3.49-4.38-3.48-10.1,.03-20.21,.01-30.31,.01Zm-44.07,112.8c.04-5.5-4.47-10.08-9.87-10.03-5.27,.05-9.72,4.51-9.77,9.82-.06,5.47,4.48,10.06,9.91,10.01,5.34-.05,9.7-4.42,9.74-9.8Zm106.64-.21c-.07-5.39-4.84-10-10.17-9.82-5.31,.18-9.6,4.69-9.55,10.03,.05,5.35,4.45,9.78,9.75,9.82,5.38,.03,10.03-4.65,9.96-10.02Z"/><path class="cls-1" d="M72.94,287.17h-11.39c-.08-1.4-.2-2.52-.2-3.64-.01-11.98,.09-23.95-.04-35.93-.09-7.85,3.7-13.01,10.65-15.94,2.15-.91,3.31-2.14,4.12-4.23,3.45-8.86,7-17.69,10.56-26.51,3.4-8.44,7.94-11.49,17.06-11.54,5.33-.03,10.67,0,16.57,0,0-2.57-.06-4.84,.01-7.1,.13-3.89,1.69-5.51,5.59-5.57,6.05-.08,12.09-.09,18.14,0,3.92,.06,5.38,1.66,5.47,5.62,.05,2.18,0,4.36,0,7.04,5.75,0,11.18-.03,16.61,0,9.12,.05,13.67,3.13,17.07,11.53,3.61,8.92,7.1,17.9,10.86,26.76,.63,1.48,2.1,2.98,3.56,3.67,7.11,3.33,11.08,8.51,11.02,16.58-.09,11.86-.02,23.72-.02,35.58,0,1.13,0,2.26,0,3.76h-12.21c0,4.53,.02,8.68,0,12.83-.03,6.93-3.84,10.98-10.53,11.21-6.61,.23-11.59-4.35-11.83-11.06-.14-4.05-.03-8.11-.03-12.53-1.41-.11-2.51-.28-3.61-.28-23.6-.02-47.21,.04-70.81-.07-2.92-.01-3.89,.86-3.73,3.74,.18,3.24,.05,6.51-.1,9.76-.28,6.18-5.29,10.61-11.67,10.45-6.56-.17-10.61-4.26-10.66-10.78-.03-4.07-.03-8.14-.06-12.21,0-.21-.14-.43-.39-1.16Zm108.63-57.45c-3.18-8.4-6.18-16.53-9.35-24.6-1.04-2.65-3.34-3.76-6.14-3.77-20.68-.06-41.36-.11-62.03-.15-3.41,0-5.67,1.65-6.85,4.87-1.35,3.7-2.79,7.37-4.16,11.06-1.52,4.09-3.02,8.19-4.64,12.59h93.17Zm-96.77,32.9c5.35,.08,9.84-4.19,10.03-9.54,.19-5.37-4.4-10.04-9.87-10.04-5.38,0-9.76,4.33-9.81,9.71-.05,5.35,4.29,9.79,9.65,9.87Zm100.72-19.57c-5.37-.04-9.83,4.23-9.99,9.57-.16,5.37,4.45,10.03,9.91,10,5.38-.02,9.74-4.38,9.76-9.75,.03-5.37-4.33-9.79-9.68-9.82Z"/></g></g></svg>