<?xml version="1.0" encoding="UTF-8"?><svg id="Icon" xmlns="http://www.w3.org/2000/svg" viewBox="0 0 432 432"><defs><style>.cls-1{fill:#3cf;}</style></defs><g id="Family"><g><path class="cls-1" d="M208.58,373.32h-23.5v-121.56h-16.01v121.46h-23.42V165.48c-.24-.04-.48-.08-.73-.12-.43,1.85-.89,3.69-1.28,5.55-4.9,23.57-9.75,47.15-14.69,70.71-1.42,6.76-6.94,10.73-13.02,9.61-7.32-1.34-11.49-6.86-10.08-14.1,5.22-26.89,10.61-53.74,15.94-80.61,.17-.84,.44-1.68,.47-2.53,.26-7.97,4.79-13.07,10.87-17.68,27.92-21.15,67.42-19.32,92.37,4.74,1.97,1.89,3.62,4.73,4.17,7.38,6.05,29.48,12.58,58.89,17.4,88.57,2.12,13.05,10.82,21.9,15.98,32.92,.37,.79,2.26,1.2,3.46,1.23,6.52,.15,13.08-.32,19.55,.26,12.93,1.15,22.78,7.19,27.99,19.57,3.86,9.16,7.68,18.35,11.46,27.55,2.05,4.98,.54,9.06-3.94,11.04-4.07,1.79-8.25-.19-10.32-4.98-2.53-5.86-4.98-11.75-8.06-17.59v66.15h-15.92v-46.76h-7.76v46.73h-15.9v-4.15c0-21.16,.05-42.31-.08-63.47-.01-2.2-.66-4.64-1.75-6.54-8.65-15.01-17.46-29.94-26.31-44.83-.81-1.36-2.14-2.7-3.55-3.36-3.97-1.86-6.45-4.64-7.33-9.02-4.8-23.97-9.68-47.92-14.54-71.87-.29-1.42-.62-2.83-1.46-4.22v207.65Z"/><path class="cls-1" d="M176.81,113.61c-15.35-.08-27.45-12.4-27.33-27.82,.12-15.11,12.45-27.2,27.66-27.11,15.19,.08,27.34,12.27,27.36,27.44,.02,15.3-12.34,27.56-27.69,27.49Z"/><path class="cls-1" d="M283.39,267.13c-10.97,.05-19.67-8.56-19.73-19.5-.05-10.89,8.67-19.73,19.52-19.77,10.82-.04,19.74,8.77,19.81,19.56,.07,10.83-8.72,19.66-19.6,19.71Z"/></g><path class="cls-1" d="M216,19.71c26.51,0,52.21,5.19,76.4,15.42,23.37,9.89,44.37,24.04,62.4,42.08,18.03,18.03,32.19,39.03,42.08,62.4,10.23,24.19,15.42,49.89,15.42,76.4s-5.19,52.21-15.42,76.4c-9.89,23.37-24.04,44.37-42.08,62.4-18.03,18.03-39.03,32.19-62.4,42.08-24.19,10.23-49.89,15.42-76.4,15.42s-52.21-5.19-76.4-15.42c-23.37-9.89-44.37-24.04-62.4-42.08-18.03-18.03-32.19-39.03-42.08-62.4-10.23-24.19-15.42-49.89-15.42-76.4s5.19-52.21,15.42-76.4c9.89-23.37,24.04-44.37,42.08-62.4,18.03-18.03,39.03-32.19,62.4-42.08,24.19-10.23,49.89-15.42,76.4-15.42m0-20C96.54-.29-.29,96.54-.29,216s96.84,216.29,216.29,216.29,216.29-96.84,216.29-216.29S335.46-.29,216-.29h0Z"/></g></svg>