<?xml version="1.0" encoding="UTF-8"?><svg id="Older_designs" xmlns="http://www.w3.org/2000/svg" viewBox="0 0 585 198"><defs><style>.cls-1{fill:#fff;}.cls-2{fill:#f63;}</style></defs><rect class="cls-2" width="585" height="198"/><g><path class="cls-1" d="M51.11,39.11h45.18v21.5h-18.5v20.37h16.48v20.44h-16.48v45.13h-26.68V39.11Z"/><path class="cls-1" d="M134.85,39.11v14h-26.36v-14h26.36Zm0,19.38v88.06h-26.36V58.49h26.36Z"/><path class="cls-1" d="M201.28,58.49l-10.2,42.07,12.36,45.99h-24.89c-2.47-11.62-4.35-21.61-5.62-30-1.71,10.46-3.56,20.46-5.56,30h-21.4l11.03-45.99-11.03-42.07h21.4c3.45,18,5.3,28.22,5.56,30.66,2.47-15.03,4.35-25.25,5.62-30.66h22.73Z"/><path class="cls-1" d="M289.53,39.11l15.26,107.44h-27.26l-1.43-19.31h-9.54l-1.6,19.31h-27.58l13.61-107.44h38.56Zm-14.14,69.08c-1.35-12.17-2.7-27.21-4.06-45.13-2.72,20.57-4.43,35.62-5.12,45.13h9.18Z"/><path class="cls-1" d="M397.8,58.49l-10.22,88.06h-27.79c-1.51-10.76-3.28-24.94-5.31-42.54-.69,7.74-1.65,15.55-2.88,23.43l-2.81,19.11h-27.85l-10.85-88.06h22.07c.17,2.3,2.03,19.11,5.59,50.43,.28-3.22,2.2-20.04,5.75-50.43h21.2l5.18,50.43c.82-14.73,2.78-31.54,5.87-50.43h22.04Z"/><path class="cls-1" d="M431.28,92.6h-24.02v-5.91c0-6.81,.75-12.07,2.25-15.76s4.51-6.96,9.03-9.79c4.52-2.83,10.39-4.25,17.62-4.25,8.66,0,15.19,1.6,19.58,4.81,4.39,3.21,7.03,7.14,7.92,11.81s1.33,14.28,1.33,28.83v44.2h-24.9v-7.85c-1.56,3.15-3.58,5.51-6.05,7.08s-5.42,2.36-8.84,2.36c-4.48,0-8.59-1.32-12.33-3.95-3.74-2.63-5.61-8.39-5.61-17.29v-7.23c0-6.59,.99-11.08,2.98-13.47,1.99-2.39,6.91-5.18,14.76-8.36,8.41-3.45,12.91-5.77,13.5-6.97s.89-3.63,.89-7.3c0-4.6-.33-7.6-.98-8.99s-1.74-2.09-3.26-2.09c-1.73,0-2.81,.59-3.23,1.76s-.63,4.21-.63,9.12v9.22Zm8.11,12.08c-4.1,3.14-6.47,5.77-7.13,7.9s-.98,5.18-.98,9.16c0,4.56,.29,7.5,.86,8.83s1.7,1.99,3.39,1.99,2.65-.52,3.14-1.56,.73-3.77,.73-8.2v-18.12Z"/><path class="cls-1" d="M533.89,58.49l-7.32,63.71c-1.16,10.09-2.13,16.96-2.91,20.64s-2.08,6.7-3.9,9.09-4.34,4.15-7.57,5.28-8.4,1.69-15.49,1.69h-15.52v-14.07c3.98,0,6.54-.21,7.68-.63,1.14-.42,1.72-1.36,1.72-2.82,0-.71-.53-3.78-1.59-9.22l-14.01-73.66h23.24l8.41,59.46,4.1-59.46h23.16Z"/></g></svg>