<?xml version="1.0" encoding="UTF-8"?><svg id="Older_designs" xmlns="http://www.w3.org/2000/svg" viewBox="0 0 279 162"><defs><style>.cls-1{fill:#fff;}.cls-2{fill:#3cf;}</style></defs><rect class="cls-2" x=".13" y=".06" width="279.72" height="161.94"/><g><path class="cls-1" d="M41.18,44.17h32.41v14.75h-13.27v13.98h11.82v14.02h-11.82v30.96h-19.14V44.17Z"/><path class="cls-1" d="M97.36,44.17V117.89h-19.14V44.17h19.14Z"/><path class="cls-1" d="M143.83,44.17l-6.73,32.6,10.14,41.11h-17.73c-2.12-7.35-4.06-16.3-5.82-26.86-.48,4.68-1.16,9.63-2.02,14.84l-1.8,12.02h-18.64l6.95-41.11-6.95-32.6h18.5c.34,2.03,1,5.42,1.99,10.15,.8,3.61,1.45,6.93,1.96,9.98l4.09-20.13h16.05Z"/><path class="cls-1" d="M149.94,44.17h31.91v14.75h-12.77v13.98h11.95v14.02h-11.95v16.21h14.04v14.75h-33.18V44.17Z"/><path class="cls-1" d="M188.62,44.17h14.32c9.24,0,15.49,.43,18.75,1.27,3.26,.85,5.73,2.25,7.43,4.19,1.7,1.95,2.76,4.11,3.18,6.49,.42,2.38,.64,7.06,.64,14.04v25.82c0,6.62-.31,11.04-.93,13.27-.62,2.23-1.7,3.98-3.25,5.24-1.55,1.26-3.45,2.14-5.73,2.64-2.27,.5-5.7,.75-10.27,.75h-24.14V44.17Zm19.14,12.61v48.49c2.76,0,4.45-.55,5.09-1.66,.64-1.11,.95-4.12,.95-9.04v-28.63c0-3.34-.11-5.48-.32-6.42-.21-.94-.7-1.63-1.45-2.07-.76-.44-2.18-.66-4.27-.66Z"/></g></svg>