<?xml version="1.0" encoding="UTF-8"?><svg id="Older_designs" xmlns="http://www.w3.org/2000/svg" viewBox="0 0 279 144"><defs><style>.cls-1{fill:#fff;}.cls-2{fill:#3cf;}</style></defs><rect class="cls-2" x=".15" width="278.7" height="144"/><g><path class="cls-1" d="M49.48,35.97v57.64h11.39v14.42H30.74V35.97h18.74Z"/><path class="cls-1" d="M106.85,78.16c0,7.24-.17,12.37-.51,15.38-.34,3.01-1.41,5.77-3.2,8.26-1.8,2.49-4.22,4.41-7.28,5.74-3.06,1.33-6.62,2-10.68,2s-7.32-.63-10.39-1.89c-3.07-1.26-5.54-3.15-7.41-5.68s-2.98-5.27-3.34-8.23c-.36-2.97-.53-8.16-.53-15.58v-12.33c0-7.24,.17-12.37,.51-15.38,.34-3.01,1.41-5.76,3.2-8.26,1.79-2.49,4.22-4.41,7.28-5.74s6.62-2,10.68-2c3.86,0,7.32,.63,10.39,1.89,3.07,1.26,5.54,3.15,7.41,5.67,1.87,2.52,2.98,5.27,3.34,8.23,.36,2.97,.53,8.16,.53,15.58v12.33Zm-18.74-23.68c0-3.35-.19-5.5-.56-6.43-.37-.93-1.13-1.4-2.29-1.4-.98,0-1.73,.38-2.25,1.14-.52,.76-.78,2.99-.78,6.7v33.65c0,4.18,.17,6.77,.51,7.74,.34,.98,1.13,1.47,2.38,1.47s2.09-.56,2.45-1.69c.36-1.13,.53-3.81,.53-8.06V54.49Z"/><path class="cls-1" d="M156.84,62.5h-18.74v-6.54c0-4.12-.18-6.7-.53-7.74-.36-1.04-1.2-1.56-2.54-1.56-1.16,0-1.94,.44-2.36,1.34-.42,.89-.62,3.17-.62,6.85v34.58c0,3.23,.21,5.36,.62,6.39,.42,1.02,1.25,1.54,2.49,1.54,1.36,0,2.29-.58,2.78-1.74s.73-3.41,.73-6.77v-8.54h-3.78v-10.95h21.94v38.68h-11.78l-1.73-5.16c-1.28,2.22-2.89,3.89-4.83,5.01-1.95,1.11-4.24,1.67-6.88,1.67-3.15,0-6.1-.77-8.84-2.29-2.75-1.53-4.83-3.42-6.26-5.68-1.43-2.25-2.32-4.62-2.67-7.1-.36-2.48-.53-6.19-.53-11.15v-21.41c0-6.88,.37-11.88,1.11-15,.74-3.12,2.87-5.97,6.39-8.57,3.52-2.6,8.06-3.9,13.64-3.9s10.04,1.13,13.66,3.38c3.62,2.25,5.98,4.94,7.08,8.03,1.1,3.1,1.65,7.6,1.65,13.51v3.12Z"/><path class="cls-1" d="M198.9,35.97V108.03h-18.74V35.97h18.74Z"/><path class="cls-1" d="M248.26,35.97V108.03h-16.42l-9.75-32.76v32.76h-15.67V35.97h15.67l10.5,32.45V35.97h15.67Z"/></g></svg>