<?xml version="1.0" encoding="UTF-8"?><svg id="Older_designs" xmlns="http://www.w3.org/2000/svg" viewBox="0 0 396 162"><defs><style>.cls-1{fill:#fff;}.cls-2{fill:#f63;}</style></defs><rect class="cls-2" x="0" width="396" height="162"/><g><path class="cls-1" d="M78.18,88.06c0,7.5-.18,12.81-.53,15.93-.36,3.12-1.46,5.97-3.32,8.55-1.86,2.58-4.36,4.57-7.53,5.95-3.16,1.39-6.84,2.08-11.05,2.08-3.99,0-7.57-.65-10.75-1.96-3.17-1.31-5.73-3.27-7.66-5.88-1.93-2.61-3.08-5.45-3.45-8.53-.37-3.07-.55-8.45-.55-16.14v-12.77c0-7.5,.18-12.81,.53-15.93,.35-3.12,1.45-5.97,3.31-8.55,1.86-2.58,4.36-4.56,7.53-5.95,3.16-1.38,6.85-2.07,11.05-2.07s7.57,.65,10.75,1.96c3.17,1.3,5.73,3.27,7.66,5.88,1.94,2.62,3.09,5.46,3.46,8.53s.55,8.45,.55,16.14v12.77Zm-19.38-24.53c0-3.47-.19-5.69-.58-6.66-.38-.97-1.17-1.45-2.37-1.45-1.01,0-1.79,.4-2.32,1.18-.54,.79-.81,3.1-.81,6.94v34.86c0,4.34,.18,7.01,.53,8.03,.35,1.01,1.17,1.52,2.46,1.52s2.16-.58,2.53-1.75c.37-1.17,.55-3.95,.55-8.35V63.53Z"/><path class="cls-1" d="M128.68,44.35V119h-16.99l-10.08-33.94v33.94h-16.2V44.35h16.2l10.86,33.62V44.35h16.2Z"/><path class="cls-1" d="M180.93,71.83h-19.38v-6.78c0-4.27-.18-6.95-.55-8.02s-1.24-1.62-2.62-1.62c-1.2,0-2.01,.47-2.44,1.39s-.65,3.29-.65,7.1v35.83c0,3.35,.22,5.55,.65,6.62,.43,1.06,1.29,1.59,2.58,1.59,1.41,0,2.37-.6,2.88-1.8,.51-1.19,.76-3.53,.76-7.01v-8.85h-3.91v-11.34h22.69v40.07h-12.18l-1.79-5.35c-1.32,2.31-2.99,4.04-5,5.19-2.02,1.15-4.39,1.73-7.12,1.73-3.26,0-6.31-.79-9.15-2.38-2.84-1.58-5-3.54-6.47-5.88-1.47-2.34-2.39-4.79-2.76-7.36-.37-2.57-.55-6.42-.55-11.55v-22.18c0-7.13,.38-12.31,1.15-15.54,.77-3.23,2.97-6.19,6.6-8.88,3.64-2.69,8.34-4.03,14.11-4.03s10.39,1.17,14.14,3.5c3.74,2.34,6.18,5.11,7.32,8.32,1.14,3.21,1.7,7.88,1.7,14v3.22Z"/><path class="cls-1" d="M232.72,88.06c0,7.5-.18,12.81-.53,15.93-.35,3.12-1.46,5.97-3.31,8.55-1.86,2.58-4.37,4.57-7.53,5.95-3.16,1.39-6.85,2.08-11.05,2.08s-7.57-.65-10.75-1.96c-3.17-1.31-5.73-3.27-7.66-5.88-1.94-2.61-3.09-5.45-3.46-8.53-.37-3.07-.55-8.45-.55-16.14v-12.77c0-7.5,.18-12.81,.53-15.93,.35-3.12,1.46-5.97,3.32-8.55,1.86-2.58,4.36-4.56,7.53-5.95,3.16-1.38,6.84-2.07,11.05-2.07,3.99,0,7.57,.65,10.75,1.96,3.17,1.3,5.73,3.27,7.66,5.88,1.93,2.62,3.08,5.46,3.45,8.53,.37,3.07,.55,8.45,.55,16.14v12.77Zm-19.38-24.53c0-3.47-.19-5.69-.58-6.66-.39-.97-1.18-1.45-2.37-1.45-1.01,0-1.79,.4-2.33,1.18-.54,.79-.8,3.1-.8,6.94v34.86c0,4.34,.18,7.01,.53,8.03,.36,1.01,1.18,1.52,2.46,1.52s2.16-.58,2.53-1.75c.37-1.17,.55-3.95,.55-8.35V63.53Z"/><path class="cls-1" d="M259.33,44.35V119h-19.38V44.35h19.38Z"/><path class="cls-1" d="M310.38,44.35V119h-16.99l-10.08-33.94v33.94h-16.2V44.35h16.2l10.86,33.62V44.35h16.2Z"/><path class="cls-1" d="M362.63,71.83h-19.38v-6.78c0-4.27-.18-6.95-.55-8.02s-1.24-1.62-2.63-1.62c-1.19,0-2.01,.47-2.44,1.39-.43,.92-.65,3.29-.65,7.1v35.83c0,3.35,.22,5.55,.65,6.62,.43,1.06,1.29,1.59,2.58,1.59,1.41,0,2.37-.6,2.88-1.8,.5-1.19,.76-3.53,.76-7.01v-8.85h-3.91v-11.34h22.69v40.07h-12.18l-1.79-5.35c-1.32,2.31-2.99,4.04-5,5.19-2.01,1.15-4.38,1.73-7.12,1.73-3.25,0-6.3-.79-9.14-2.38-2.84-1.58-5-3.54-6.47-5.88s-2.4-4.79-2.77-7.36c-.37-2.57-.55-6.42-.55-11.55v-22.18c0-7.13,.38-12.31,1.15-15.54,.76-3.23,2.97-6.19,6.6-8.88,3.64-2.69,8.34-4.03,14.11-4.03s10.39,1.17,14.13,3.5c3.75,2.34,6.18,5.11,7.32,8.32,1.13,3.21,1.7,7.88,1.7,14v3.22Z"/></g></svg>