<?xml version="1.0" encoding="UTF-8"?><svg id="About" xmlns="http://www.w3.org/2000/svg" viewBox="0 0 414 414"><defs><style>.cls-1{fill:#fff;}.cls-2{fill:#fef8c3;}.cls-3{fill:#3cf;}.cls-4{fill:#fedf81;}</style></defs><path class="cls-3" d="M70.39,230.6c-1-12.29,4.43-23.11,7.84-34.39,5.41-17.85,8.43-36.17,11.12-54.59C99.51,72.02,151.41,14.68,222.36,2.64c52.02-8.83,98.53,3.64,137.98,39.51,29.22,26.57,46.81,59.63,51.97,98.65,6.45,48.79-6.77,92.24-38.92,129.57-23.82,27.66-53.91,45.08-89.63,52.56-13.09,2.74-26.54,3.31-39.64,6.16-12.83,2.79-25.43,6.34-37.8,10.73-7.4,2.63-14.96,4-22.81,3.74-2.41-2.5-4.82-5-7.22-7.51-5.19-5.45-10.94-10.37-15.74-16.2,0,0,.13-.13,.13-.13,2.91-.05,5.3,2.93,8.51,1.34,5.83-2.88,12.14-4.45,18.31-6.36,13.98-4.33,28.14-7.95,42.61-10.2,10.12-1.58,20.39-2.46,30.36-4.7,28.11-6.33,51.22-20.95,68.71-43.91,21.6-28.35,29.69-60.37,23.71-95.48-5.05-29.6-19.67-53.89-42.71-73.28-19.19-16.14-41.36-25.25-66.02-27.49-26.44-2.4-51.72,2.55-74.66,16.61-22.63,13.87-39.58,32.79-49.9,57.44-5.88,14.04-8.12,28.82-10.09,43.81-2.56,19.54-7.37,38.67-13.78,57.33-2.27,6.61-4.59,13-.4,19.65,0,0-.03,.03-.03,.03-1.05-.06-1.83-.62-2.49-1.38-6.96-8.01-14.65-15.3-22.42-22.51Z"/><path class="cls-1" d="M160.55,319.84c4.8,5.83,10.55,10.75,15.74,16.2,2.39,2.51,4.81,5.01,7.22,7.51-.09,9.27-4.05,11.25-13.37,6.67-.13-1.75-1.52-2.64-2.6-3.71-33.19-33.21-66.39-66.42-99.61-99.59-1.04-1.04-1.78-2.66-3.69-2.47-.13-.4-.19-.84-.4-1.19-4.63-7.89-2.47-12.06,6.55-12.66,7.76,7.21,15.45,14.5,22.42,22.51,.66,.76,1.44,1.32,2.49,1.38,.1,1.02,.58,1.68,1.68,1.72,.29,.27,.58,.55,.87,.82,.29,.28,.57,.56,.86,.83,.29,.28,.57,.56,.86,.84,2.88,5.43,8.05,8.77,12.08,13.15,1.64,1.79,2.97,4.16,5.73,4.65,.28,.28,.56,.57,.85,.85,.28,.28,.56,.57,.85,.85,.28,.28,.56,.57,.84,.85,.28,.28,.56,.57,.84,.85,.28,.28,.56,.57,.84,.85,.28,.28,.56,.57,.84,.85,.28,.28,.56,.57,.85,.85,.28,.28,.56,.57,.85,.85,.28,.28,.57,.57,.85,.85,.28,.28,.57,.56,.85,.85,.28,.28,.57,.56,.85,.84,.28,.28,.57,.56,.85,.84,.28,.28,.57,.56,.85,.84,.29,.28,.57,.56,.86,.84,.28,.28,.57,.56,.85,.84,.28,.28,.57,.56,.85,.85,.28,.28,.57,.57,.85,.85,.28,.28,.57,.57,.85,.85,.28,.28,.57,.57,.85,.85,.28,.28,.57,.57,.85,.85s.57,.57,.85,.85c.28,.28,.57,.57,.85,.85,.28,.28,.57,.57,.85,.85,.28,.28,.57,.57,.85,.85,.28,.28,.57,.57,.85,.85,.28,.28,.57,.57,.85,.85,.28,.28,.56,.56,.84,.85,.28,.28,.57,.57,.85,.85,.28,.28,.57,.57,.85,.85,.1,.06,.2,.13,.29,.19-.1-.06-.21-.12-.31-.18-.28-.28-.57-.57-.85-.85-.28-.28-.57-.57-.85-.85-.28-.28-.56-.56-.85-.84-.28-.28-.57-.57-.85-.85-.28-.28-.57-.57-.85-.85-.28-.28-.57-.57-.85-.85-.28-.28-.57-.57-.85-.85-.28-.28-.57-.57-.85-.85-.28-.28-.57-.57-.85-.85-.28-.28-.57-.57-.85-.85-.28-.28-.57-.57-.85-.85-.28-.28-.57-.57-.85-.85-.28-.28-.57-.57-.85-.85-.28-.28-.56-.57-.85-.85-.28-.28-.56-.57-.84-.85-.28-.29-.56-.57-.84-.86-.28-.28-.56-.57-.84-.85-.28-.28-.56-.57-.84-.85-.28-.28-.56-.57-.84-.85-.28-.28-.56-.57-.85-.85-.28-.28-.57-.57-.85-.85-.28-.28-.57-.56-.85-.85-.28-.28-.57-.56-.85-.85-.28-.28-.57-.56-.85-.85-.28-.28-.57-.56-.85-.84-.28-.28-.57-.56-.85-.84-.28-.28-.57-.56-.85-.84-.28-.28-.57-.56-.85-.85-.28-.28-.57-.56-.85-.85-5.65-6.22-11.59-12.16-17.81-17.81-.28-.28-.56-.57-.85-.85-.28-.29-.56-.57-.83-.86-.27-.29-.55-.58-.82-.87-.03-1.12-3.59-14.71-1.32-21.32,6.41-18.66,11.22-37.79,13.78-57.33,1.96-14.99,4.21-29.77,10.09-43.81,10.32-24.65,27.26-43.57,49.9-57.44,22.94-14.06,48.22-19,74.66-16.61,24.66,2.24,46.83,11.35,66.02,27.49,23.04,19.38,37.66,43.68,42.71,73.28,5.99,35.11-2.1,67.14-23.71,95.48-17.49,22.95-40.6,37.58-68.71,43.91-9.97,2.24-20.24,3.13-30.36,4.7-14.48,2.25-28.64,5.87-42.61,10.2-6.17,1.91-12.48,3.48-18.31,6.36-3.21,1.59-5.6-1.39-8.51-1.34-.29-.27-.59-.53-.88-.8-.14-.12-.28-.24-.41-.36,.12,.14,.24,.28,.35,.42,.27,.29,.54,.58,.81,.87Zm-38.1-123.36c-.03,56.75,45.5,101.42,100.4,102.05,58.06,.67,102.59-45.81,103.11-100.57,.54-57.5-45.51-102.48-100.76-102.91-56.9-.44-102.56,45.39-102.74,101.43Z"/><path class="cls-1" d="M91.2,407.22c-3.76,4.49-9.14,5.37-14.4,5.72-6.47,.43-12.99,.07-19.5,.05-.93-1.04-1.78-2.17-2.8-3.11-14.98-13.84-29.17-28.45-42.84-43.58-3.65-4.04-6.72-8.68-11.24-11.91-.4-10.58-.62-21.16,5.2-30.66,3.87-6.32,9.88-10.69,14.95-15.92,2.97,1.82,4.62,4.89,6.88,7.37,10.61,11.67,22.04,22.53,33.5,33.34,5.41,5.1,11.21,9.8,16.81,14.71,10.78,9.45,22.29,17.97,33.59,26.75-3.78,1.88-6.28,5.05-8.52,8.48-2.1-1.14-4.22-2.24-6.29-3.43-29.52-17.06-56.88-37.03-81.79-60.35-2.57-2.41-5.33-4.62-8.12-7.04-.62,1.62,.12,2.36,.75,3.09,12.28,14.22,25.74,27.27,39.46,40.07,4.73,4.42,9.69,8.6,14.72,12.69,9.82,7.99,19.75,15.83,29.64,23.73Z"/><path class="cls-3" d="M64.24,244.45c1.9-.19,2.65,1.44,3.69,2.47,33.22,33.18,66.42,66.38,99.61,99.59,1.07,1.07,2.47,1.96,2.6,3.71-7.07,4.59-14.46,5.5-22.22,1.86-12.89-9.78-25.94-19.33-38.24-29.89-18.51-15.89-36.52-32.25-52.43-50.79-4.1-10.65-1.29-19.51,6.99-26.95Z"/><path class="cls-1" d="M57.25,271.4c15.92,18.54,33.93,34.91,52.43,50.79,12.3,10.56,25.35,20.11,38.24,29.89-1.7,1.8-3.25,3.79-5.15,5.36-2.36,1.96-3.43,3.82-.94,6.36-.91-.32-1.91-.5-2.73-.99-8.92-5.35-17.83-10.71-26.5-16.49-23.12-15.4-44.62-32.78-64.51-52.17-5.14-5.01-10.26-10.05-15.39-15.07,.51-3.08,1.62-5.94,4.99-6.57,3.29-.61,6.04,.82,7.87,3.72,1.92,3.05,3.79,3.14,6.15,.31,1.6-1.92,3.67-3.46,5.54-5.17Z"/><path class="cls-1" d="M14.95,298.66c-.93-3.46,.81-5.92,3.59-7.25,2.48-1.19,5.08-.71,7.23,1.6,4.97,5.34,4.33,5.06,9.58-.17,1.09-1.09,2.16-2.2,3.24-3.3,11.84,12.47,23.49,25.12,36.32,36.62,10.91,9.79,21.91,19.46,33.35,28.63,6.7,5.36,14.03,9.91,20.26,15.86-.56,2.65-2.95,3.85-4.56,5.64-1.2,1.33-2.57,2.49-2.51,4.49-3.31-1.81-6.69-3.52-9.92-5.46-26.51-15.88-51.19-34.18-74-55.07-7.69-7.04-14.74-14.73-22.57-21.6Z"/><path class="cls-3" d="M.42,354.38c4.52,3.24,7.59,7.87,11.24,11.91,13.67,15.13,27.86,29.74,42.84,43.58,1.02,.94,1.87,2.07,2.8,3.11-12.02,.04-24.29,2.44-35.75-3.18-13.67-6.7-20.43-18.14-21.28-33.04-.42-7.44,.07-14.92,.14-22.39Z"/><path class="cls-3" d="M128.51,370.66c-6.23-5.95-13.56-10.5-20.26-15.86-11.45-9.17-22.44-18.84-33.35-28.63-12.83-11.5-24.48-24.16-36.32-36.62-1.38-1.59-2.69-3.26-4.17-4.75-1.62-1.64-2.49-3.4-1.7-5.7,5.13,5.02,10.25,10.06,15.39,15.07,19.89,19.39,41.38,36.77,64.51,52.17,8.67,5.78,17.57,11.14,26.5,16.49,.81,.49,1.81,.67,2.73,.99,0,0,.3,.25,.3,.24,.37,.97,1.11,1.4,2.11,1.43,3,2.28,3.38,5.35,1.42,8.15-1.99,2.84-4.99,3.89-8.57,2.26-3.1-1.4-5.24-4.3-8.59-5.24Z"/><path class="cls-3" d="M14.95,298.66c7.83,6.87,14.88,14.56,22.57,21.6,22.81,20.89,47.5,39.19,74,55.07,3.24,1.94,6.61,3.65,9.92,5.46,1.29,.83,2.59,1.66,3.87,2.5,3.07,2,4.08,5.63,2.45,8.85-1.53,3.02-5.46,4.53-8.66,2.89-2.73-1.4-5.19-3.34-7.77-5.05-11.3-8.79-22.81-17.31-33.59-26.76-5.6-4.91-11.4-9.6-16.81-14.71-11.46-10.81-22.88-21.67-33.5-33.34-2.26-2.48-3.91-5.55-6.88-7.37-1.64-3.19-5.79-4.83-5.63-9.14Z"/><path class="cls-3" d="M91.2,407.22c-9.89-7.9-19.82-15.75-29.64-23.73-5.02-4.09-9.98-8.27-14.72-12.69-13.72-12.8-27.18-25.85-39.46-40.07-.63-.73-1.38-1.47-.75-3.09,2.8,2.41,5.55,4.63,8.12,7.04,24.9,23.32,52.27,43.29,81.79,60.35,2.07,1.19,4.19,2.29,6.29,3.43,1.69,1.45,3.97,2.01,5.42,3.86,2.38,3.05,2.64,6.26,.38,9.27-2.3,3.07-5.54,3.07-8.66,1.27-3.01-1.73-5.85-3.75-8.76-5.65Z"/><path class="cls-2" d="M144.24,365.49c-1.01-.03-1.74-.46-2.11-1.43,1.13-.14,2.28-.34,2.11,1.43Z"/><path class="cls-3" d="M122.46,196.48c.18-56.04,45.84-101.87,102.74-101.43,55.26,.43,101.3,45.41,100.76,102.91-.51,54.76-45.04,101.24-103.11,100.57-54.9-.64-100.43-45.31-100.4-102.05Z"/><path class="cls-4" d="M121.6,280.78c-.28-.28-.56-.57-.84-.85h0c.28,.27,.57,.56,.85,.84,0,0-.02,.02-.02,.02Z"/><path class="cls-4" d="M122.44,281.63c-.28-.28-.56-.57-.84-.85,0,0,.02-.02,.02-.02,.28,.28,.57,.56,.85,.85l-.02,.02Z"/><path class="cls-4" d="M122.47,281.61c.28,.28,.57,.56,.85,.85l-.03,.03c-.28-.28-.56-.57-.85-.85,0,0,.02-.02,.02-.02Z"/><path class="cls-4" d="M123.32,282.45c.28,.28,.57,.56,.85,.85l-.03,.03c-.28-.28-.56-.57-.85-.85,0,0,.03-.03,.03-.03Z"/><path class="cls-4" d="M124.17,283.3c.28,.28,.57,.57,.85,.85,0,0-.03,.03-.03,.03-.28-.28-.57-.57-.85-.85,0,0,.03-.03,.03-.03Z"/><path class="cls-4" d="M125.84,285.03c-.28-.28-.57-.56-.85-.85,0,0,.03-.03,.03-.03,.28,.28,.56,.57,.85,.85,0,0-.03,.03-.03,.03Z"/><path class="cls-4" d="M126.69,285.87c-.28-.28-.57-.56-.85-.84,0,0,.03-.03,.03-.03,.28,.28,.56,.57,.84,.85,0,0-.02,.02-.02,.02Z"/><path class="cls-4" d="M127.54,286.71c-.28-.28-.57-.56-.85-.84,0,0,.02-.02,.02-.02,.28,.28,.56,.57,.84,.85h-.01Z"/><path class="cls-4" d="M127.55,286.7c.28,.28,.56,.57,.84,.85h0c-.28-.28-.57-.56-.85-.84,0,0,.01-.01,.01-.01Z"/><path class="cls-4" d="M130.1,289.24c-.28-.28-.57-.56-.85-.84,0,0-.01,.01-.01,.01,.28,.28,.56,.57,.84,.85l.02-.02Z"/><path class="cls-4" d="M97.87,257.01c.28,.29,.56,.57,.83,.86h0c-.29-.28-.57-.56-.86-.84,0,0,.02-.02,.02-.02Z"/><path class="cls-4" d="M130.95,290.09c-.28-.28-.57-.56-.85-.85,0,0-.02,.02-.02,.02,.28,.28,.56,.57,.85,.85,0,0,.02-.02,.02-.02Z"/><path class="cls-4" d="M131.79,290.93c-.28-.28-.57-.57-.85-.85,0,0-.02,.02-.02,.02,.28,.28,.57,.57,.85,.85l.02-.02Z"/><path class="cls-4" d="M131.77,290.95c.28,.28,.57,.57,.85,.85l.02-.02c-.28-.28-.57-.57-.85-.85,0,0-.02,.02-.02,.02Z"/><path class="cls-4" d="M132.62,291.8c.28,.28,.57,.57,.85,.85l.02-.02c-.28-.28-.57-.57-.85-.85,0,0-.02,.02-.02,.02Z"/><path class="cls-4" d="M133.47,292.65c.28,.28,.57,.57,.85,.85l.02-.02c-.28-.28-.57-.57-.85-.85l-.02,.02Z"/><path class="cls-4" d="M134.32,293.5c.28,.28,.57,.57,.85,.85l.02-.02c-.28-.28-.57-.57-.85-.85l-.02,.02Z"/><path class="cls-4" d="M135.17,294.34c.28,.28,.57,.57,.85,.85l.02-.02c-.28-.28-.57-.57-.85-.85,0,0-.02,.02-.02,.02Z"/><path class="cls-4" d="M136.02,295.19c.28,.28,.57,.57,.85,.85l.02-.02c-.28-.28-.57-.57-.85-.85,0,0-.02,.02-.02,.02Z"/><path class="cls-4" d="M136.86,296.04c.28,.28,.57,.57,.85,.85l.02-.02c-.28-.28-.57-.57-.85-.85l-.02,.02Z"/><path class="cls-4" d="M138.58,297.72c-.28-.28-.57-.57-.85-.85l-.02,.02c.28,.28,.57,.57,.85,.85l.02-.02Z"/><path class="cls-4" d="M98.7,257.87c.28,.28,.56,.57,.85,.85,0,0,.02-.02,.02-.02-.29-.28-.57-.56-.86-.84h0Z"/><path class="cls-4" d="M117.36,276.54c.28,.28,.57,.56,.85,.85l.02-.02c-.28-.28-.56-.57-.85-.85,0,0-.02,.02-.02,.02Z"/><path class="cls-4" d="M140.27,299.42c-.28-.28-.56-.56-.84-.85l-.02,.02c.28,.28,.56,.56,.85,.84h.01Z"/><path class="cls-4" d="M140.26,299.43c.28,.28,.57,.57,.85,.85h.01c-.28-.3-.57-.58-.85-.86h-.01Z"/><path class="cls-4" d="M141.97,301.11c-.28-.28-.57-.57-.85-.85,0,0-.01,.01-.01,.01,.28,.28,.57,.57,.85,.85h.01Z"/><path class="cls-4" d="M141.95,301.13c.1,.06,.21,.12,.31,.18-.1-.06-.2-.13-.29-.19h-.01Z"/><path class="cls-4" d="M128.39,287.55c.28,.29,.56,.57,.84,.86,0,0,.01-.01,.01-.01-.29-.28-.57-.56-.86-.84h0Z"/><path class="cls-4" d="M159.75,318.97c-.12-.14-.24-.28-.35-.42,.14,.12,.28,.24,.41,.36l-.06,.06Z"/><path class="cls-4" d="M159.81,318.91c.29,.27,.59,.53,.88,.8,0,0-.13,.13-.13,.13-.27-.29-.54-.58-.81-.87,0,0,.06-.06,.06-.06Z"/><path class="cls-4" d="M118.21,277.38c.28,.28,.57,.56,.85,.85,0,0,.01-.01,.01-.01-.28-.28-.56-.57-.85-.85,0,0-.02,.02-.02,.02Z"/><path class="cls-4" d="M119.91,279.07c-.28-.28-.56-.57-.84-.85,0,0-.01,.01-.01,.01,.28,.28,.57,.56,.85,.84h0Z"/><path class="cls-4" d="M120.76,279.92c-.28-.28-.56-.57-.84-.85,0,0,0,0,0,0,.28,.28,.57,.56,.85,.84,0,0,0,0,0,0Z"/><path class="cls-4" d="M138.56,297.74c.28,.28,.57,.57,.85,.85l.02-.02c-.28-.28-.57-.57-.85-.85,0,0-.02,.02-.02,.02Z"/></svg>