<?xml version="1.0" encoding="UTF-8"?><svg id="About" xmlns="http://www.w3.org/2000/svg" viewBox="0 0 324 414"><defs><style>.cls-1,.cls-2{fill:#3cf;}.cls-2{stroke:#3cf;stroke-miterlimit:10;}</style></defs><path class="cls-1" d="M315.19,218.23c-17.24-25.07-34.06-50.39-51.15-75.55-1.42-2.1-1.21-3.9-.25-6.05,7.86-17.64,15.62-35.32,23.41-52.98,4.58-10.39,9.08-20.81,13.74-31.17,1.53-3.4,1.23-7.33-1.05-10.35-2.98-3.96-6.15-1.8-9.16-1.07-28.45,6.97-56.99,13.62-85.23,21.25-8.88,2.4-15.29,1.72-21.03-4.96-1.71-1.99-4.15-3.44-6.24-5.15-20.49-16.71-40.99-33.4-61.43-50.16-2.84-2.33-5.8-2.54-9.01-1.24-3.08,1.25-4.81,3.47-5.01,6.68-1.86,30.52-3.79,61.03-5.54,91.55-.17,2.99-.92,4.95-3.85,6.62-18.25,10.35-36.37,20.9-54.53,31.39-9.61,5.54-19.21,11.11-28.85,16.6-3.34,1.9-4.16,4.68-4.07,8.09,.09,3.38,2.34,4.52,5.29,5.61,30.07,11.14,60.08,22.45,90.19,33.51,3.68,1.35,5.65,3.24,6.86,6.7,13.31,37.92,26.78,75.79,40.17,113.69,1.15,3.25,2.84,6.36,3.02,9.86,0,.01,.01,.03,.03,.03,7.38-.03,14.75-.07,22.13-.1,.01,0,.02,0,.03-.02,13.58-34.03,27.15-68.06,40.76-102.07,2.55-6.37,2.61-6.25,10.01-5.38,19.97,2.34,89.58,15.36,92.92,8.56,0,0,2.55-7-2.18-13.87Zm-28.06-162.94c3.31,.8,2.97,2.63,1.96,4.89-7.75,17.28-15.45,34.57-23.22,51.84-.5,1.11-.82,2.57-3.08,2.6-4.24,.21-6.33-2.51-4.56-6.46,7.62-17.02,15.38-33.98,22.76-51.09,1.59-3.68,3.63-2.39,6.15-1.78ZM120.48,202.55c-2.11-.05-2.06-1.64-2.35-2.69-1.32-4.8-4.33-7.45-9.52-9.32-28.96-10.39-57.74-21.2-86.58-31.87-.85-.31-1.66-.71-2.67-1.14,.43-.61,.48-.76,.59-.83,5.03-3.55,9.34-4.47,16.14-1.65,22.13,9.15,44.92,16.96,67.44,25.3,5.59,2.07,11.16,4.22,16.74,6.32,1.67,.63,2.81,1.53,3.26,3.3,.53,2.08,1.48,4.07,2.21,6.1,1.59,4.39-.29,6.61-5.28,6.49Zm141.94,11.45c-7.57-.22-14.99-2.01-22.59-1.83h0c-7.02-.77-14.08-1.36-21.06-2.36-5.99-.86-7.03-.59-9.15,4.63-6.7,16.46-13.48,32.9-19.93,49.44-1.32,3.39-2.91,4.68-6.56,3.4-.02,0-.03,0-.04,.02-1.61,4.6-3.23,9.2-4.85,13.8,0,.01,0,.03,.02,.03,2.19,1.04,4.46,1.68,3.06,5.01-5.78,13.8-11.29,27.71-17.32,42.62-.01,.02-.05,.02-.06,0-3.09-8.52-5.84-16.07-8.58-23.63-.88-2.44-1.63-4.93-2.63-7.32-1.1-2.61-.57-4.1,2.47-5.25,2.91-1.1,4.47-1.15,5.45,2,.97,3.11,2.45,6.08,4.12,10.09,.01,.02,.05,.02,.06,0,2.78-7.19,5.25-13.5,7.66-19.84,.66-1.75,1.03-3.62,3.03-4.58,.01,0,.02-.02,.02-.03-2.63-9.45-7.31-18.19-11.16-27.2-18.6-43.48-37.35-86.91-56.1-130.34-.78-1.81-1.17-3.85-2.8-5.3,0,0-.01,0-.02,0-2.9-.13-4.86,1.8-7,3.03-15.11,8.68-30.15,17.47-45.09,26.41-2.77,1.66-4.5,1.99-6.41-.85-1.8-2.67-1.62-4.3,1.5-6.08,15.94-9.08,31.77-18.32,47.58-27.58,6.44-3.77,6.39-3.86,10.62,1.69,0,0,.02,.01,.03,.01,4.09-.74,5.43-2.85,5.57-6.87,.65-18.66,1.52-37.31,2.81-55.94,.7-10.08,1.35-20.16,1.8-30.26,0-.02-.01-.03-.03-.03-1.75-.04-3.94-.52-3.78-2.48,.07-.85,.02-1.72,0-2.58-.04-2.58-.31-6.33,2.59-7.14,2.46-.69,20.92,30.49,23.31,36.04,22.13,51.43,44.24,102.87,66.4,154.29,.28,.65,.03,1.33,.07,2.03,0,.01,.01,.02,.03,.03,8.01,.82,16.02,1.65,24.04,2.47,.02,0,.04-.02,.03-.04-3.15-9.72-7.78-18.93-11.81-28.34-14.98-34.96-30.17-69.85-45.25-104.78-.5-1.17-.62-2.48-.92-3.72,0,0,0-.02,0-.02,.1-.27,5.07-2.35,9.24-4.63,1.23-.68,1.96-.34,2.85,.38,1.87,1.5,12.57,8.61,17.42,7.37,23.08-5.87,46.26-11.43,69.37-17.21,2.36-.59,3.43-.34,3.86,2.02,.43,2.34,2.08,4.8-2.02,5.78-9.57,2.29-19.11,4.67-28.68,6.99-10.9,2.65-21.82,5.25-32.71,7.93-.99,.24-1.84,.96-2.76,1.45-.01,0-.02,.02-.01,.03,2.4,8.61,6.69,16.58,10.19,24.8,15.48,36.36,31.1,72.67,46.76,108.97,1.23,2.86,.39,3.58-2.64,3.5Zm32.74-2.11c-.88,.14-1.51-.24-1.93-.9-2.2-3.45-4.6-6.81-6.5-10.4-1.61-3.03,1.69-3.38,3.49-4.47,1.82-1.1,3.18-1.29,4.37,.96,1.35,2.56,3.21,4.88,4.77,7.35,2.31,3.65,.29,7.21-4.19,7.45Z"/><g><path class="cls-1" d="M74.36,401.62c-5.53,0-11.06-.03-16.59-.07l-9.09-.05v-3.25c.02-22.45,.13-43.59,.89-46.17l.14-.48,.4-.3c1.01-.76,3.09-1.2,10.77-1.2,2.18,0,4.52,.03,6.82,.07,2.21,.03,4.37,.06,6.32,.06,2.9,0,4.8-.07,5.97-.22h.1s.1-.01,.1-.01c2.4,.01,4.81,.04,7.22,.06,3.58,.03,7.16,.07,10.74,.07,2.78,0,5.27-.02,7.6-.06h.31c1.35,0,3.04,.14,4.18,1.3,1.12,1.14,1.24,2.8,1.22,4.11-.09,5.57-.08,11.24-.07,16.72,0,5.53,.02,11.25-.07,16.88-.01,.8,0,1.9,.35,2.24,.16,.16,.68,.44,2.32,.44,15.99-.07,32.15-.11,48.1-.11s31.98,.04,47.87,.11h0c1.71,0,2.22-.28,2.39-.44,.34-.34,.36-1.44,.35-2.24-.09-6.08-.09-12.26-.08-18.24,0-5.18,.01-10.53-.05-15.8-.01-1.19,.11-2.68,1.15-3.74,1.07-1.08,2.64-1.22,3.89-1.22h.18c.48,0,1.06,0,1.74,0,2.31,0,5.7-.03,9.68-.06,5.56-.05,12.47-.11,19.04-.11,24,0,24.98,.81,25.7,1.41l.35,.29,.13,.44c.77,2.59,.88,23.68,.9,46.08v3.35s-3.36,.07-3.36,.07c-1.39,.03-2.78,.07-4.18,.07h-106.11c-29.11,0-58.2,0-87.31,0Z"/><path class="cls-1" d="M248.23,351.41c12.31,0,23.71,.2,24.75,1.06,.85,2.88,.83,35.1,.84,47.53-2.01,.04-4.03,.11-6.04,.11-35.16,0-70.33,0-105.49,0-29.31,0-58.62,0-87.93,0-8.06,0-16.11-.07-24.17-.11,0-12.43,0-44.65,.83-47.51,.96-.73,5.01-.89,9.87-.89,4.27,0,9.16,.13,13.14,.13,2.58,0,4.77-.05,6.16-.24,5.99,.03,11.98,.13,17.96,.13,2.54,0,5.08-.02,7.63-.06,.1,0,.19,0,.28,0,3.04,0,3.95,.97,3.9,3.89-.17,11.2,.04,22.4-.14,33.6-.05,3,.51,4.21,4.16,4.21,.03,0,.05,0,.08,0,15.98-.07,31.96-.11,47.94-.11s31.96,.04,47.94,.11c.03,0,.05,0,.08,0,3.64,0,4.21-1.2,4.16-4.21-.18-11.34,0-22.69-.12-34.03-.03-2.57,.81-3.45,3.54-3.45,.05,0,.11,0,.16,0,.48,0,1.07,0,1.75,0,5.58,0,17.53-.17,28.72-.17m0-3c-6.58,0-13.5,.06-19.06,.11-3.95,.03-7.37,.06-9.66,.06-.67,0-1.24,0-1.71,0h-.19c-1.42,0-3.48,.17-4.95,1.66-1.45,1.47-1.6,3.45-1.59,4.82,.06,5.25,.05,10.61,.05,15.78,0,5.98-.02,12.17,.08,18.26,0,.53,0,.87-.03,1.09-.22,.04-.58,.07-1.13,.07h-.07c-15.91-.07-32.05-.11-47.95-.11s-32.06,.04-47.96,.11h-.06c-.55,0-.91-.03-1.13-.07-.02-.21-.04-.56-.03-1.09,.09-5.64,.08-11.37,.07-16.91,0-5.47-.02-11.14,.07-16.69,.02-1.48-.12-3.64-1.65-5.19-1.54-1.57-3.73-1.75-5.25-1.75-.11,0-.22,0-.34,0-2.32,.04-4.8,.06-7.57,.06-3.57,0-7.2-.03-10.72-.07-2.41-.02-4.82-.05-7.23-.06h-.2s-.2,.02-.2,.02c-1.09,.14-2.98,.21-5.77,.21-1.93,0-4.05-.03-6.3-.06-2.28-.03-4.65-.07-6.84-.07-8.19,0-10.36,.5-11.68,1.5l-.79,.6-.28,.95c-.67,2.29-.93,14.92-.95,46.6v1.75s0,2.99,0,2.99h2.99c2.55,.03,5.1,.04,7.66,.06,5.42,.03,11.02,.07,16.53,.07,29.31,0,58.62,0,87.93,0,35.16,0,70.33,0,105.49,0,1.42,0,2.84-.03,4.21-.07,.63-.02,1.26-.03,1.88-.04l2.94-.06v-2.94s0-1.86,0-1.86c-.02-31.61-.28-44.22-.96-46.52l-.26-.88-.71-.58c-1.14-.94-2.12-1.75-26.66-1.75h0Z"/></g><path class="cls-2" d="M243.81,351.5c-8.69,.04-17.37,.18-26.06,.08-2.85-.03-3.73,.82-3.7,3.45,.13,11.34-.05,22.69,.12,34.03,.05,3.03-.53,4.22-4.24,4.2-31.96-.15-63.92-.15-95.88,0-3.72,.02-4.29-1.18-4.24-4.21,.18-11.2-.03-22.4,.14-33.6,.05-3.01-.91-3.95-4.18-3.89-8.53,.16-17.06-.02-25.59-.06-.05-5.3,.12-10.6-.23-15.88-.24-3.49,.75-4.59,4.74-4.56,22.12,.18,44.24,.07,66.37,.06,7.4-.03,14.79-.07,22.18-.1,22.01,.04,44.01,.18,66.02,.04,3.91-.03,5.04,.97,4.79,4.52-.37,5.28-.19,10.6-.24,15.91Zm-81.88,7.37c-13.64,0-27.29,.07-40.93-.06-2.85-.03-3.73,.68-3.65,3.35,.2,6.88,.18,13.78,.01,20.66-.06,2.53,.53,3.46,3.54,3.45,27.44-.11,54.89-.1,82.33-.02,2.63,0,3.47-.66,3.4-3.13-.17-6.6-.28-13.21,.03-19.8,.16-3.48-.72-4.64-4.74-4.56-13.33,.26-26.67,.1-40,.1Z"/><path class="cls-2" d="M46.19,400c8.35,.04,16.71,.11,25.06,.11,66.84,0,133.67,0,200.51,0,2.09,0,4.17-.07,6.26-.11q7.7,.29,7.7,7.48,0,6.43-7.33,6.43c-78.16,0-156.33-.03-234.49,.08-4.23,0-6.28-.75-5.42-4.79,.12-.55,.02-1.15,.02-1.72q0-7.19,7.7-7.48Z"/><path class="cls-2" d="M165.99,261.09c-2.15-1-3.96-1.71-5.62-2.66-.88-.5-2.8-.43-2.26-2.02,.34-1.02,1.2-2.13,2.18-2.66,1.49-.8,1.94,.88,2.76,1.57,1.62,1.37,2.7,3.04,2.95,5.77Z"/></svg>