<?xml version="1.0" encoding="UTF-8"?><svg id="Older_designs" xmlns="http://www.w3.org/2000/svg" viewBox="0 0 585 171"><defs><style>.cls-1{fill:#fff;}.cls-2{fill:#3cf;}</style></defs><rect class="cls-2" x=".12" y="0" width="584.76" height="171.99"/><g><path class="cls-1" d="M41.67,31.62h20.02c13.35,0,22.38,.52,27.11,1.55,4.73,1.03,8.58,3.66,11.56,7.89s4.47,10.98,4.47,20.26c0,8.47-1.05,14.15-3.16,17.06s-6.25,4.66-12.43,5.24c5.6,1.39,9.36,3.25,11.29,5.58s3.12,4.47,3.59,6.42,.71,7.31,.71,16.09v28.69h-26.27v-36.14c0-5.82-.46-9.43-1.38-10.82s-3.33-2.08-7.22-2.08v49.04h-28.28V31.62Zm28.28,18.61v24.19c3.18,0,5.41-.44,6.68-1.31s1.91-3.71,1.91-8.5v-5.98c0-3.45-.62-5.71-1.85-6.79s-3.48-1.61-6.75-1.61Z"/><path class="cls-1" d="M115.78,31.62h47.16v21.77h-18.88v20.63h17.67v20.69h-17.67v23.92h20.76v21.77h-49.04V31.62Z"/><path class="cls-1" d="M237.85,71.66h-28.28v-9.88c0-6.23-.27-10.12-.81-11.69s-1.81-2.35-3.83-2.35c-1.75,0-2.93,.67-3.56,2.02s-.94,4.79-.94,10.35v52.2c0,4.88,.31,8.1,.94,9.64s1.88,2.32,3.76,2.32c2.06,0,3.46-.87,4.2-2.62s1.11-5.15,1.11-10.21v-12.9h-5.71v-16.53h33.12v58.38h-17.77l-2.62-7.79c-1.93,3.36-4.36,5.88-7.29,7.56s-6.4,2.52-10.39,2.52c-4.75,0-9.2-1.15-13.35-3.46-4.15-2.31-7.29-5.16-9.45-8.57s-3.5-6.98-4.03-10.72-.81-9.35-.81-16.83v-32.31c0-10.39,.56-17.94,1.68-22.64s4.33-9.01,9.64-12.93,12.17-5.88,20.59-5.88,15.16,1.7,20.63,5.11,9.02,7.45,10.68,12.13,2.49,11.48,2.49,20.39v4.7Z"/><path class="cls-1" d="M277.08,31.62v108.77h-28.28V31.62h28.28Z"/><path class="cls-1" d="M348.36,64.54h-26.27v-8.06c0-3.76-.34-6.16-1.01-7.19s-1.79-1.55-3.36-1.55c-1.7,0-2.99,.69-3.86,2.08-.87,1.39-1.31,3.5-1.31,6.32,0,3.63,.49,6.36,1.47,8.2,.94,1.84,3.6,4.06,7.99,6.65,12.59,7.47,20.52,13.6,23.79,18.4,3.27,4.79,4.9,12.52,4.9,23.18,0,7.75-.91,13.46-2.72,17.13s-5.32,6.75-10.51,9.24c-5.2,2.49-11.24,3.73-18.14,3.73-7.57,0-14.03-1.43-19.38-4.3s-8.86-6.52-10.51-10.95-2.49-10.73-2.49-18.88v-7.12h26.27v13.24c0,4.08,.37,6.7,1.11,7.86s2.05,1.75,3.93,1.75,3.28-.74,4.2-2.22,1.38-3.67,1.38-6.58c0-6.4-.87-10.59-2.62-12.56-1.79-1.97-6.2-5.26-13.24-9.88-7.03-4.66-11.69-8.04-13.97-10.14s-4.18-5.02-5.68-8.73-2.25-8.47-2.25-14.24c0-8.33,1.06-14.42,3.19-18.27s5.56-6.86,10.31-9.04,10.48-3.26,17.2-3.26c7.35,0,13.6,1.19,18.78,3.56,5.17,2.37,8.6,5.36,10.28,8.97s2.52,9.73,2.52,18.37v4.3Z"/><path class="cls-1" d="M416.55,31.62v21.77h-16.8v87h-28.28V53.38h-16.73V31.62h61.81Z"/><path class="cls-1" d="M423,31.62h47.16v21.77h-18.88v20.63h17.67v20.69h-17.67v23.92h20.76v21.77h-49.04V31.62Z"/><path class="cls-1" d="M480.18,31.62h20.02c13.35,0,22.38,.52,27.11,1.55,4.73,1.03,8.58,3.66,11.56,7.89s4.47,10.98,4.47,20.26c0,8.47-1.05,14.15-3.16,17.06s-6.25,4.66-12.43,5.24c5.6,1.39,9.36,3.25,11.29,5.58s3.12,4.47,3.59,6.42,.71,7.31,.71,16.09v28.69h-26.27v-36.14c0-5.82-.46-9.43-1.38-10.82s-3.33-2.08-7.22-2.08v49.04h-28.28V31.62Zm28.28,18.61v24.19c3.18,0,5.41-.44,6.68-1.31s1.91-3.71,1.91-8.5v-5.98c0-3.45-.62-5.71-1.85-6.79s-3.48-1.61-6.75-1.61Z"/></g></svg>