<?xml version="1.0" encoding="UTF-8"?><svg id="Older_designs" xmlns="http://www.w3.org/2000/svg" viewBox="0 0 324 162"><defs><style>.cls-1{fill:#fff;}.cls-2{fill:#3cf;}</style></defs><rect class="cls-2" x="0" width="324" height="162"/><g><path class="cls-1" d="M104.8,65.06h-20.61v-6.33c0-2.96-.26-4.84-.79-5.65-.53-.81-1.41-1.21-2.64-1.21-1.33,0-2.35,.55-3.03,1.64-.69,1.09-1.03,2.74-1.03,4.96,0,2.85,.38,5,1.16,6.44,.74,1.45,2.83,3.19,6.27,5.23,9.88,5.87,16.1,10.69,18.66,14.46,2.56,3.77,3.85,9.84,3.85,18.21,0,6.09-.71,10.58-2.13,13.46-1.42,2.89-4.17,5.31-8.25,7.26-4.07,1.95-8.82,2.93-14.23,2.93-5.94,0-11.01-1.13-15.2-3.38-4.2-2.25-6.95-5.12-8.25-8.6-1.3-3.48-1.95-8.43-1.95-14.83v-5.6h20.61v10.4c0,3.2,.29,5.26,.87,6.18,.58,.91,1.61,1.37,3.08,1.37s2.57-.58,3.29-1.74c.72-1.16,1.08-2.89,1.08-5.17,0-5.03-.68-8.32-2.05-9.87-1.41-1.55-4.87-4.14-10.38-7.76-5.52-3.66-9.17-6.32-10.96-7.97s-3.28-3.94-4.45-6.86c-1.18-2.92-1.77-6.65-1.77-11.19,0-6.55,.83-11.33,2.5-14.36,1.67-3.03,4.37-5.39,8.09-7.1,3.72-1.71,8.22-2.56,13.49-2.56,5.76,0,10.67,.93,14.73,2.8,4.06,1.87,6.75,4.21,8.06,7.05s1.98,7.65,1.98,14.44v3.38Z"/><path class="cls-1" d="M113.6,39.19h37v17.1h-14.81v16.21h13.86v16.26h-13.86v18.79h16.28v17.1h-38.47V39.19Z"/><path class="cls-1" d="M207.99,39.19V124.66h-19.45l-11.54-38.85v38.85h-18.55V39.19h18.55l12.44,38.48V39.19h18.55Z"/><path class="cls-1" d="M216.9,39.19h16.6c10.72,0,17.96,.49,21.74,1.48,3.77,.99,6.65,2.6,8.62,4.86,1.97,2.25,3.2,4.76,3.69,7.52,.49,2.76,.74,8.19,.74,16.28v29.93c0,7.67-.36,12.8-1.08,15.39-.72,2.59-1.98,4.61-3.77,6.07-1.79,1.46-4.01,2.48-6.64,3.06-2.64,.58-6.61,.87-11.91,.87h-27.98V39.19Zm22.19,14.62v56.22c3.2,0,5.16-.64,5.9-1.93,.74-1.28,1.11-4.78,1.11-10.48v-33.2c0-3.87-.12-6.35-.37-7.44s-.81-1.89-1.69-2.4c-.88-.51-2.53-.77-4.95-.77Z"/></g></svg>