<?xml version="1.0" encoding="UTF-8"?><svg id="Older_designs" xmlns="http://www.w3.org/2000/svg" viewBox="0 0 396 162"><defs><style>.cls-1{fill:#fff;}.cls-2{fill:#3cf;}</style></defs><rect class="cls-2" width="396" height="162"/><g><path class="cls-1" d="M115.99,67.42h-16.6v-5.1c0-2.38-.21-3.89-.64-4.55-.42-.65-1.13-.98-2.12-.98-1.08,0-1.89,.44-2.44,1.32-.55,.88-.83,2.21-.83,4,0,2.3,.31,4.03,.93,5.19,.59,1.16,2.27,2.56,5.05,4.21,7.95,4.73,12.96,8.6,15.03,11.64,2.07,3.03,3.1,7.92,3.1,14.66,0,4.9-.57,8.51-1.72,10.83-1.15,2.32-3.36,4.27-6.64,5.84-3.28,1.57-7.1,2.36-11.46,2.36-4.78,0-8.86-.91-12.25-2.72-3.38-1.81-5.6-4.12-6.64-6.93-1.05-2.8-1.57-6.78-1.57-11.94v-4.5h16.6v8.37c0,2.58,.23,4.23,.7,4.97s1.29,1.1,2.48,1.1,2.07-.47,2.65-1.4c.58-.93,.87-2.32,.87-4.16,0-4.05-.55-6.7-1.66-7.95-1.13-1.25-3.92-3.33-8.36-6.25-4.44-2.95-7.39-5.08-8.83-6.42-1.44-1.33-2.64-3.17-3.59-5.52-.95-2.35-1.42-5.35-1.42-9.01,0-5.27,.67-9.12,2.02-11.56,1.34-2.44,3.52-4.34,6.52-5.71,3-1.37,6.62-2.06,10.87-2.06,4.64,0,8.6,.75,11.86,2.25,3.27,1.5,5.43,3.39,6.49,5.67,1.06,2.28,1.59,6.15,1.59,11.62v2.72Z"/><path class="cls-1" d="M170.68,46.6V115.4h-17.87v-28.89h-5.35v28.89h-17.87V46.6h17.87v24.6h5.35v-24.6h17.87Z"/><path class="cls-1" d="M215.26,46.6l10.22,68.79h-18.26l-.96-12.36h-6.39l-1.08,12.36h-18.47l9.12-68.79h25.83Zm-9.47,44.23c-.91-7.79-1.81-17.42-2.72-28.89-1.82,13.17-2.96,22.8-3.43,28.89h6.15Z"/><path class="cls-1" d="M235.04,46.6h12.65c8.43,0,14.14,.33,17.13,.98,2.99,.65,5.42,2.32,7.3,4.99,1.88,2.68,2.82,6.95,2.82,12.81,0,5.35-.66,8.95-1.99,10.79-1.33,1.84-3.95,2.95-7.85,3.31,3.54,.88,5.91,2.05,7.13,3.53,1.22,1.47,1.97,2.83,2.27,4.06,.3,1.23,.45,4.62,.45,10.18v18.14h-16.6v-22.86c0-3.68-.29-5.96-.87-6.84-.58-.88-2.1-1.32-4.56-1.32v31.02h-17.87V46.6Zm17.87,11.77v15.3c2.01,0,3.42-.28,4.22-.83,.81-.55,1.21-2.34,1.21-5.37v-3.78c0-2.18-.39-3.61-1.17-4.29-.78-.68-2.2-1.02-4.27-1.02Z"/><path class="cls-1" d="M288.37,46.6h29.8v13.77h-11.93v13.04h11.16v13.09h-11.16v15.13h13.12v13.77h-30.99V46.6Z"/></g></svg>