<?xml version="1.0" encoding="UTF-8"?><svg id="Home" xmlns="http://www.w3.org/2000/svg" viewBox="0 0 1440 36"><defs><style>.cls-1{fill:#f63;}</style></defs><polygon class="cls-1" points="0 36 36 0 63 0 27 36 0 36"/><polygon class="cls-1" points="72.47 36 108.47 0 135.47 0 99.47 36 72.47 36"/><polygon class="cls-1" points="144.95 36 180.95 0 207.95 0 171.95 36 144.95 36"/><polygon class="cls-1" points="217.42 36 253.42 0 280.42 0 244.42 36 217.42 36"/><polygon class="cls-1" points="289.89 36 325.89 0 352.89 0 316.89 36 289.89 36"/><polygon class="cls-1" points="362.37 36 398.37 0 425.37 0 389.37 36 362.37 36"/><polygon class="cls-1" points="434.84 36 470.84 0 497.84 0 461.84 36 434.84 36"/><polygon class="cls-1" points="507.32 36 543.32 0 570.32 0 534.32 36 507.32 36"/><polygon class="cls-1" points="579.79 36 615.79 0 642.79 0 606.79 36 579.79 36"/><polygon class="cls-1" points="652.26 36 688.26 0 715.26 0 679.26 36 652.26 36"/><polygon class="cls-1" points="724.74 36 760.74 0 787.74 0 751.74 36 724.74 36"/><polygon class="cls-1" points="797.21 36 833.21 0 860.21 0 824.21 36 797.21 36"/><polygon class="cls-1" points="869.68 36 905.68 0 932.68 0 896.68 36 869.68 36"/><polygon class="cls-1" points="942.16 36 978.16 0 1005.16 0 969.16 36 942.16 36"/><polygon class="cls-1" points="1014.63 36 1050.63 0 1077.63 0 1041.63 36 1014.63 36"/><polygon class="cls-1" points="1087.11 36 1123.11 0 1150.11 0 1114.11 36 1087.11 36"/><polygon class="cls-1" points="1159.58 36 1195.58 0 1222.58 0 1186.58 36 1159.58 36"/><polygon class="cls-1" points="1232.05 36 1268.05 0 1295.05 0 1259.05 36 1232.05 36"/><polygon class="cls-1" points="1304.53 36 1340.53 0 1367.53 0 1331.53 36 1304.53 36"/><polygon class="cls-1" points="1377 36 1413 0 1440 0 1404 36 1377 36"/></svg>