<?xml version="1.0" encoding="UTF-8"?><svg id="Older_designs" xmlns="http://www.w3.org/2000/svg" viewBox="0 0 585 126"><defs><style>.cls-1{fill:#fff;}.cls-2{fill:#3cf;}</style></defs><rect class="cls-2" x="0" width="585" height="126"/><g><path class="cls-1" d="M87.68,28.95v42.28c0,4.8-.16,8.16-.47,10.1-.31,1.94-1.24,3.93-2.78,5.98-1.54,2.04-3.56,3.59-6.08,4.65s-5.48,1.58-8.89,1.58c-3.78,0-7.11-.62-10-1.88s-5.05-2.88-6.49-4.89c-1.43-2-2.28-4.12-2.54-6.35-.26-2.23-.39-6.91-.39-14.05V28.95h16.45v47.44c0,2.76,.15,4.53,.45,5.3,.3,.77,.9,1.15,1.82,1.15,1.04,0,1.71-.42,2.01-1.27,.3-.85,.45-2.85,.45-6V28.95h16.45Z"/><path class="cls-1" d="M109.65,40.36l-.27,4.58c1.41-1.85,2.96-3.24,4.65-4.15s3.54-1.37,5.55-1.37c2.45,0,4.57,.66,6.35,1.97,1.78,1.32,2.9,2.83,3.34,4.55,.44,1.72,.67,4.64,.67,8.75v21.85c0,4.72-.28,8.07-.84,10.06-.56,1.99-1.71,3.58-3.44,4.77-1.73,1.18-3.82,1.78-6.27,1.78-1.95,0-3.76-.46-5.43-1.37-1.67-.92-3.19-2.27-4.57-4.07v11.89h-15.79V40.36h16.06Zm4.49,15.08c0-3.21-.12-5.14-.35-5.82-.23-.68-.89-1.02-1.95-1.02s-1.71,.39-2.01,1.17c-.3,.78-.45,2.67-.45,5.67v21.49c0,3.13,.16,5.08,.47,5.86,.31,.78,.99,1.17,2.03,1.17s1.65-.36,1.9-1.07,.37-2.45,.37-5.22v-22.24Z"/><path class="cls-1" d="M151.38,28.95v63.27h-16.26V28.95h16.26Z"/><path class="cls-1" d="M192.77,58.57v12.7c0,4.67-.24,8.08-.7,10.26-.47,2.17-1.47,4.21-3.01,6.1-1.54,1.89-3.51,3.28-5.92,4.18s-5.18,1.35-8.3,1.35c-3.49,0-6.45-.39-8.87-1.15-2.42-.77-4.3-1.93-5.65-3.48s-2.3-3.43-2.87-5.63c-.57-2.2-.86-5.5-.86-9.91v-13.29c0-4.82,.52-8.59,1.56-11.3,1.04-2.71,2.92-4.89,5.63-6.52,2.71-1.64,6.17-2.46,10.39-2.46,3.54,0,6.59,.53,9.13,1.58,2.54,1.06,4.5,2.43,5.88,4.12,1.38,1.7,2.32,3.44,2.83,5.24,.51,1.8,.76,4.53,.76,8.21Zm-15.79-3.91c0-2.66-.14-4.33-.43-5.02-.29-.69-.9-1.04-1.84-1.04s-1.56,.35-1.88,1.04c-.31,.69-.47,2.36-.47,5.02v23.41c0,2.45,.16,4.04,.47,4.79,.31,.74,.92,1.11,1.84,1.11s1.56-.34,1.86-1.02c.3-.68,.45-2.13,.45-4.38v-23.92Z"/><path class="cls-1" d="M212.07,60.45h-14.81v-3.48c0-4.01,.46-7.1,1.39-9.28,.92-2.17,2.78-4.1,5.57-5.76,2.79-1.67,6.41-2.5,10.86-2.5,5.34,0,9.37,.94,12.08,2.83,2.71,1.89,4.34,4.21,4.89,6.96,.55,2.75,.82,8.41,.82,16.98v26.03h-15.36v-4.62c-.96,1.85-2.21,3.24-3.73,4.17-1.52,.93-3.34,1.39-5.45,1.39-2.76,0-5.3-.78-7.6-2.33-2.3-1.55-3.46-4.94-3.46-10.18v-4.26c0-3.88,.61-6.53,1.84-7.93,1.22-1.41,4.26-3.05,9.1-4.92,5.18-2.03,7.96-3.4,8.32-4.1,.36-.7,.55-2.13,.55-4.3,0-2.71-.2-4.48-.61-5.3-.4-.82-1.07-1.23-2.01-1.23-1.07,0-1.73,.35-1.99,1.04s-.39,2.48-.39,5.37v5.43Zm5,7.11c-2.53,1.85-3.99,3.4-4.4,4.65-.4,1.25-.61,3.05-.61,5.39,0,2.68,.18,4.42,.53,5.2,.35,.78,1.05,1.17,2.09,1.17s1.63-.3,1.93-.92c.3-.61,.45-2.22,.45-4.83v-10.67Z"/><path class="cls-1" d="M274.21,28.95v63.27h-15.79v-3.76c-1.51,1.57-3.1,2.74-4.77,3.52s-3.41,1.18-5.24,1.18c-2.45,0-4.57-.65-6.37-1.94-1.8-1.29-2.95-2.78-3.46-4.48-.51-1.69-.76-4.45-.76-8.28v-24.27c0-3.99,.25-6.81,.76-8.48,.51-1.67,1.67-3.13,3.5-4.4,1.82-1.26,4-1.9,6.53-1.9,1.95,0,3.75,.35,5.37,1.06,1.63,.7,3.11,1.76,4.44,3.17v-14.7h15.79Zm-15.79,24.46c0-1.9-.16-3.18-.49-3.83s-.97-.98-1.93-.98-1.57,.29-1.9,.88c-.33,.58-.49,1.89-.49,3.93v25.4c0,2.11,.16,3.5,.47,4.16,.31,.66,.91,.99,1.8,.99,1.02,0,1.69-.37,2.03-1.11,.34-.74,.51-2.56,.51-5.45v-23.99Z"/><path class="cls-1" d="M310.91,28.95v63.27h-16.45V28.95h16.45Z"/><path class="cls-1" d="M332.64,40.36l-.27,4.93c1.22-1.96,2.68-3.43,4.38-4.4,1.69-.98,3.62-1.47,5.78-1.47,4.22,0,7.54,1.96,9.97,5.87,1.33-1.96,2.83-3.43,4.49-4.4s3.52-1.47,5.55-1.47c2.68,0,4.9,.65,6.66,1.95,1.76,1.3,2.89,2.9,3.38,4.79s.74,4.96,.74,9.2v36.85h-15.32V58.42c0-4.43-.15-7.17-.45-8.23-.3-1.06-1-1.58-2.09-1.58s-1.84,.52-2.17,1.56c-.33,1.04-.49,3.79-.49,8.25v33.8h-15.32V59.28c0-5.08-.12-8.13-.37-9.14-.25-1.02-.93-1.53-2.05-1.53-.7,0-1.3,.27-1.8,.8-.5,.53-.77,1.19-.82,1.95-.05,.77-.08,2.4-.08,4.9v35.95h-15.32V40.36h15.59Z"/><path class="cls-1" d="M392.86,60.45h-14.81v-3.48c0-4.01,.46-7.1,1.39-9.28,.92-2.17,2.78-4.1,5.57-5.76,2.79-1.67,6.41-2.5,10.86-2.5,5.34,0,9.37,.94,12.08,2.83,2.71,1.89,4.34,4.21,4.89,6.96,.55,2.75,.82,8.41,.82,16.98v26.03h-15.36v-4.62c-.96,1.85-2.21,3.24-3.73,4.17-1.52,.93-3.34,1.39-5.45,1.39-2.76,0-5.3-.78-7.6-2.33-2.3-1.55-3.46-4.94-3.46-10.18v-4.26c0-3.88,.61-6.53,1.84-7.93,1.22-1.41,4.26-3.05,9.1-4.92,5.18-2.03,7.96-3.4,8.32-4.1,.36-.7,.55-2.13,.55-4.3,0-2.71-.2-4.48-.61-5.3-.4-.82-1.07-1.23-2.01-1.23-1.07,0-1.73,.35-1.99,1.04s-.39,2.48-.39,5.37v5.43Zm5,7.11c-2.53,1.85-3.99,3.4-4.4,4.65-.4,1.25-.61,3.05-.61,5.39,0,2.68,.18,4.42,.53,5.2,.35,.78,1.05,1.17,2.09,1.17s1.63-.3,1.93-.92c.3-.61,.45-2.22,.45-4.83v-10.67Z"/><path class="cls-1" d="M454.95,40.36v39.94c0,5.39-.12,8.88-.37,10.46s-1.13,3.24-2.64,5c-1.51,1.76-3.62,3.1-6.31,4.03s-6.09,1.39-10.18,1.39c-5.03,0-9.07-.85-12.11-2.56s-4.62-5.06-4.73-10.06h15.32c0,2.29,.83,3.44,2.5,3.44,1.2,0,1.99-.35,2.38-1.06,.39-.7,.59-2.18,.59-4.42v-3.91c-1.35,1.23-2.78,2.16-4.28,2.78-1.5,.63-3.07,.94-4.71,.94-2.84,0-5.18-.57-7.02-1.72-1.84-1.15-3.09-2.65-3.77-4.51-.68-1.86-1.02-4.51-1.02-7.95v-18.84c0-4.92,.89-8.47,2.66-10.63,1.77-2.16,4.47-3.24,8.09-3.24,1.98,0,3.78,.4,5.41,1.21,1.63,.81,3.08,2.02,4.36,3.64l1.13-3.92h14.69Zm-15.83,13.76c0-2.37-.14-3.88-.41-4.53s-.88-.98-1.82-.98-1.56,.37-1.93,1.11c-.38,.74-.57,2.21-.57,4.4v17.43c0,2.32,.14,3.82,.43,4.51s.88,1.04,1.8,1.04c1.04,0,1.72-.42,2.03-1.25s.47-2.72,.47-5.67v-16.06Z"/><path class="cls-1" d="M496.34,67.21h-20.44v11.21c0,2.35,.17,3.86,.51,4.53s.99,1.02,1.95,1.02c1.2,0,2-.45,2.4-1.35,.4-.9,.61-2.64,.61-5.22v-6.84h14.97v3.83c0,3.21-.2,5.67-.61,7.39-.4,1.72-1.35,3.55-2.83,5.51s-3.37,3.42-5.65,4.4c-2.28,.98-5.14,1.47-8.58,1.47s-6.28-.48-8.83-1.45-4.54-2.29-5.96-3.97c-1.42-1.68-2.4-3.53-2.95-5.55-.55-2.02-.82-4.96-.82-8.81v-15.12c0-4.53,.61-8.11,1.84-10.73s3.23-4.62,6.02-6.02c2.79-1.39,5.99-2.09,9.61-2.09,4.43,0,8.08,.84,10.96,2.52,2.88,1.68,4.9,3.91,6.06,6.68s1.74,6.68,1.74,11.7v6.88Zm-15.83-8.44v-3.79c0-2.68-.14-4.42-.43-5.2-.29-.78-.87-1.17-1.76-1.17-1.09,0-1.77,.33-2.03,1s-.39,2.46-.39,5.37v3.79h4.61Z"/><path class="cls-1" d="M533.74,56.93h-13.99v-2.81c0-2.4-.14-3.91-.41-4.55-.27-.64-.96-.96-2.05-.96-.89,0-1.55,.29-1.99,.88-.44,.58-.66,1.47-.66,2.64,0,1.59,.11,2.76,.33,3.5,.22,.74,.89,1.56,1.99,2.44s3.38,2.18,6.82,3.87c4.58,2.24,7.59,4.35,9.03,6.33,1.43,1.98,2.15,4.86,2.15,8.64,0,4.22-.55,7.41-1.64,9.56-1.09,2.15-2.93,3.8-5.49,4.96-2.57,1.16-5.66,1.74-9.28,1.74-4.01,0-7.44-.63-10.3-1.88-2.85-1.25-4.81-2.94-5.88-5.08s-1.6-5.37-1.6-9.69v-2.5h13.99v3.28c0,2.79,.18,4.6,.53,5.43,.35,.84,1.05,1.25,2.09,1.25,1.12,0,1.9-.28,2.34-.84,.44-.56,.66-1.74,.66-3.54,0-2.47-.29-4.02-.86-4.65-.6-.62-3.66-2.48-9.18-5.55-4.64-2.61-7.46-4.97-8.48-7.09-1.02-2.12-1.52-4.64-1.52-7.56,0-4.14,.55-7.2,1.64-9.16,1.09-1.97,2.95-3.48,5.57-4.55s5.66-1.6,9.13-1.6,6.36,.44,8.77,1.31,4.26,2.03,5.55,3.46c1.29,1.43,2.07,2.76,2.34,3.99,.27,1.22,.41,3.14,.41,5.74v3.01Z"/></g></svg>