<?xml version="1.0" encoding="UTF-8"?><svg id="Icon" xmlns="http://www.w3.org/2000/svg" viewBox="0 0 432 432"><defs><style>.cls-1{fill:#3cf;}</style></defs><g id="Wheelchair"><g><path class="cls-1" d="M191.74,374.56c-6.4-1.02-12.87-1.68-19.18-3.11-38.06-8.6-68.67-41.82-73.71-80.61-5.14-39.52,8.92-71.12,40.76-94.93,.65-.49,1.36-.88,2.54-1.63,.42,5.84,.83,11.31,1.2,16.78,.85,12.77,1.58,25.54,2.56,38.3,.88,11.53,11.02,21.09,22.79,21.22,20.02,.23,40.04,.15,60.07,.2,8.05,.02,16.1,.07,24.15-.04,2.1-.03,3.33,.57,4.37,2.5,8.08,14.97,16.24,29.9,24.5,44.77,1.11,1.99,1.02,3.47-.08,5.37-17.69,30.31-43.82,47.43-78.89,50.65-1.01,.09-2.01,.35-3.02,.53h-8.05Z"/><path class="cls-1" d="M181.21,57.44c1.59,.39,3.18,.77,4.76,1.18,13.57,3.53,22.61,17.11,20.37,30.57-2.42,14.54-15.08,24.9-28.98,23.73-14.88-1.25-25.81-12.73-25.96-27.26-.15-13.93,9.69-25.53,23.43-27.64,.7-.11,1.37-.39,2.05-.59,1.45,0,2.89,0,4.34,0Z"/><path class="cls-1" d="M207.93,165.03c1.46,0,2.68,0,3.89,0,15.17,0,30.35,.08,45.52-.04,5.58-.04,9.62,2.14,11.85,7.21,2.32,5.27,1.64,10.31-2.01,14.79-2.54,3.11-6.02,4.09-9.94,4.08-14.66-.04-29.31-.01-43.97-.01-1.1,0-2.21,0-3.68,0,.44,6.4,.85,12.41,1.29,18.73h3.93c18.17,0,36.33,.09,54.5-.03,11-.08,18.9,4.06,24.24,14.21,12.09,22.99,24.8,45.66,37.31,68.43,2.4,4.37,3.94,8.91,3.11,13.91-1.05,6.35-4.33,11.14-10.6,13.33-6.36,2.22-12.1,.58-16.93-3.74-2.25-2.01-4.08-4.66-5.56-7.33-10-18.03-19.9-36.12-29.68-54.27-1.27-2.36-2.67-3.06-5.26-3.05-27.35,.09-54.7,.08-82.05,0-13.65-.04-23.48-9.25-24.42-22.85-1.84-26.76-3.53-53.54-5.42-80.29-.61-8.61,1.41-15.99,7.8-22.19,7.52-7.28,26.45-8.61,35-1.7,6.2,5.01,9.32,11.34,9.73,19.21,.37,7.08,.88,14.16,1.35,21.61Z"/></g><path class="cls-1" d="M216,20c26.47,0,52.14,5.18,76.29,15.39,23.34,9.87,44.3,24.01,62.31,42.01,18.01,18.01,32.14,38.97,42.01,62.31,10.22,24.15,15.39,49.82,15.39,76.29s-5.18,52.13-15.39,76.29c-9.87,23.34-24.01,44.3-42.01,62.31-18.01,18.01-38.97,32.14-62.31,42.01-24.15,10.21-49.82,15.39-76.29,15.39s-52.14-5.18-76.29-15.39c-23.34-9.87-44.3-24.01-62.31-42.01-18.01-18.01-32.14-38.97-42.01-62.31-10.22-24.15-15.39-49.82-15.39-76.29s5.18-52.13,15.39-76.29c9.87-23.34,24.01-44.3,42.01-62.31,18.01-18.01,38.97-32.14,62.31-42.01,24.15-10.21,49.82-15.39,76.29-15.39m0-20C96.71,0,0,96.71,0,216s96.71,216,216,216,216-96.71,216-216S335.29,0,216,0h0Z"/></g></svg>